<?xml version="1.0" standalone="no"?>
<!DOCTYPE svg PUBLIC "-//W3C//DTD SVG 20010904//EN"
 "http://www.w3.org/TR/2001/REC-SVG-20010904/DTD/svg10.dtd">
<svg version="1.0" xmlns="http://www.w3.org/2000/svg"
 width="512.000000pt" height="512.000000pt" viewBox="0 0 512.000000 512.000000"
 preserveAspectRatio="xMidYMid meet">
<metadata>
Created by potrace 1.11, written by Peter Selinger 2001-2013
</metadata>
<g transform="translate(0.000000,512.000000) scale(0.100000,-0.100000)"
fill="#000000" stroke="none">
<path d="M4320 4640 l0 -80 -80 0 -80 0 0 -80 0 -80 80 0 80 0 0 -80 0 -80 80
0 80 0 0 80 0 80 80 0 80 0 0 80 0 80 -80 0 -80 0 0 80 0 80 -80 0 -80 0 0
-80z m160 -160 l0 -80 -80 0 -80 0 0 80 0 80 80 0 80 0 0 -80z"/>
<path d="M2480 4160 l0 -80 80 0 80 0 0 80 0 80 -80 0 -80 0 0 -80z"/>
<path d="M640 4080 l0 -80 -80 0 -80 0 0 -80 0 -80 80 0 80 0 0 -80 0 -80 80
0 80 0 0 80 0 80 80 0 80 0 0 80 0 80 -80 0 -80 0 0 80 0 80 -80 0 -80 0 0
-80z m160 -160 l0 -80 -80 0 -80 0 0 80 0 80 80 0 80 0 0 -80z"/>
<path d="M1760 3760 l0 -80 80 0 80 0 0 80 0 80 -80 0 -80 0 0 -80z"/>
<path d="M2454 3821 c-48 -17 -95 -47 -153 -96 -100 -85 -240 -349 -291 -552
-10 -41 -31 -56 -45 -33 -5 9 -83 62 -170 117 -111 71 -360 167 -519 202 l-84
19 -26 -82 c-38 -125 -39 -129 -57 -226 -22 -125 -31 -340 -19 -495 4 -50 2
-59 -10 -57 -27 6 -233 4 -300 -3 -135 -14 -223 -31 -343 -66 -56 -17 -105
-34 -109 -37 -10 -10 24 -157 61 -271 41 -124 124 -293 201 -410 l62 -95 -44
-35 c-108 -88 -252 -243 -331 -357 l-35 -51 41 -40 c68 -65 212 -170 299 -219
190 -106 366 -168 593 -211 93 -17 381 -24 475 -12 36 5 84 11 107 14 71 10
226 52 322 88 54 20 91 30 92 23 3 -50 39 -158 76 -228 44 -84 114 -158 184
-194 75 -39 182 -40 253 -4 113 57 225 218 251 359 3 14 8 38 12 53 l8 26 57
-24 c70 -29 243 -79 323 -93 33 -6 74 -13 90 -16 49 -10 355 -13 420 -5 105
13 148 21 233 41 96 23 247 74 280 95 12 8 22 12 22 9 0 -3 43 17 95 45 140
75 270 166 362 253 l42 40 -47 66 c-25 36 -58 79 -72 96 -42 50 -202 209 -249
246 l-43 36 61 92 c103 155 191 351 234 521 41 159 41 159 9 171 -47 18 -196
60 -232 65 -19 3 -42 7 -50 9 -77 21 -411 36 -459 20 -17 -5 -18 -1 -12 57 13
128 6 375 -13 478 -3 14 -7 36 -10 50 -7 43 -36 153 -57 216 l-20 62 -42 -10
c-23 -5 -49 -11 -57 -13 -83 -18 -119 -29 -196 -56 -128 -45 -278 -120 -396
-199 -110 -74 -109 -74 -122 -11 -2 9 -6 23 -9 31 -3 8 -15 44 -27 80 -75 227
-224 434 -363 503 -76 38 -179 45 -253 18z"/>
<path d="M3200 3760 l0 -80 80 0 80 0 0 80 0 80 -80 0 -80 0 0 -80z"/>
</g>
</svg>
