<svg width="90" height="36" viewBox="0 0 90 36" fill="none" xmlns="http://www.w3.org/2000/svg">
<path d="M50.3184 17.1475L50.3055 11.084L47.3253 16.1021H46.5738L43.5937 11.1624V17.1475H42V8H43.3864L46.9755 14.0504L50.5257 8H51.8992L51.9251 17.1475H50.3184Z" fill="#211747"/>
<path d="M54.2819 10.1693H55.9015V14.7691L59.7238 10.1693H61.2009V17.1475H59.5813V12.5476L55.7719 17.1475H54.2819V10.1693Z" fill="#211747"/>
<path d="M67.2149 10.0909C67.8887 10.0909 68.489 10.239 69.016 10.5352C69.5515 10.8314 69.9705 11.2495 70.2728 11.7897C70.5751 12.3298 70.7263 12.9527 70.7263 13.6584C70.7263 14.364 70.5751 14.9913 70.2728 15.5401C69.9705 16.0803 69.5515 16.4984 69.016 16.7946C68.489 17.0909 67.8887 17.239 67.2149 17.239C66.282 17.239 65.5435 16.9253 64.9993 16.2981V19.6826H63.3796V10.1693H64.9215V11.084C65.1893 10.753 65.5176 10.5047 65.9063 10.3391C66.3036 10.1736 66.7398 10.0909 67.2149 10.0909ZM67.0335 15.8407C67.6296 15.8407 68.1176 15.6403 68.4977 15.2396C68.8864 14.8388 69.0807 14.3118 69.0807 13.6584C69.0807 13.005 68.8864 12.4779 68.4977 12.0772C68.1176 11.6764 67.6296 11.476 67.0335 11.476C66.6448 11.476 66.295 11.5675 65.984 11.7505C65.673 11.9247 65.4269 12.1773 65.2455 12.5084C65.0641 12.8395 64.9734 13.2228 64.9734 13.6584C64.9734 14.094 65.0641 14.4773 65.2455 14.8083C65.4269 15.1394 65.673 15.3964 65.984 15.5793C66.295 15.7536 66.6448 15.8407 67.0335 15.8407Z" fill="#211747"/>
<path d="M50.0204 19.761V28.9085H48.3619V21.1985H43.6585V28.9085H42V19.761H50.0204Z" fill="#211747"/>
<path d="M58.875 25.4586C58.875 25.5719 58.8664 25.733 58.8491 25.9421H53.4201C53.5151 26.4561 53.7613 26.8656 54.1587 27.1705C54.5647 27.4667 55.0657 27.6148 55.6617 27.6148C56.4218 27.6148 57.0481 27.3622 57.5405 26.8569L58.4086 27.8631C58.0976 28.2377 57.7046 28.5208 57.2295 28.7125C56.7544 28.9042 56.2188 29 55.6228 29C54.8627 29 54.1932 28.8475 53.6145 28.5426C53.0357 28.2377 52.5866 27.8152 52.2669 27.275C51.956 26.7262 51.8005 26.1077 51.8005 25.4194C51.8005 24.7399 51.9517 24.1301 52.254 23.5899C52.565 23.0411 52.9925 22.6142 53.5367 22.3093C54.0809 22.0044 54.6942 21.8519 55.3766 21.8519C56.0504 21.8519 56.6507 22.0044 57.1777 22.3093C57.7132 22.6055 58.1278 23.028 58.4215 23.5768C58.7239 24.117 58.875 24.7442 58.875 25.4586ZM55.3766 23.1587C54.8584 23.1587 54.4178 23.3155 54.055 23.6291C53.7009 23.934 53.4849 24.3435 53.4072 24.8575H57.3332C57.264 24.3522 57.0524 23.9427 56.6983 23.6291C56.3441 23.3155 55.9036 23.1587 55.3766 23.1587Z" fill="#211747"/>
<path d="M66.5161 21.9303V28.9085H64.8964V26.2035C64.2313 26.5258 63.5359 26.687 62.8103 26.687C61.9206 26.687 61.2382 26.4823 60.7631 26.0728C60.288 25.6546 60.0505 25.0187 60.0505 24.1649V21.9303H61.6701V24.0604C61.6701 24.5047 61.7997 24.8357 62.0588 25.0535C62.318 25.2713 62.6851 25.3802 63.1602 25.3802C63.7648 25.3802 64.3436 25.2495 64.8964 24.9882V21.9303H66.5161Z" fill="#211747"/>
<path d="M71.2725 21.8519C72.2918 21.8519 73.0692 22.1002 73.6048 22.5968C74.149 23.0846 74.4211 23.8251 74.4211 24.8183V28.9085H72.8921V28.0591C72.6935 28.364 72.4084 28.5993 72.037 28.7648C71.6742 28.9216 71.2336 29 70.7154 29C70.1971 29 69.7436 28.9129 69.3549 28.7386C68.9662 28.5557 68.6638 28.3074 68.4479 27.9938C68.2406 27.6714 68.1369 27.3099 68.1369 26.9091C68.1369 26.2819 68.3658 25.781 68.8236 25.4063C69.2901 25.023 70.02 24.8314 71.0134 24.8314H72.8014V24.7268C72.8014 24.239 72.6546 23.8643 72.3609 23.603C72.0758 23.3416 71.6483 23.211 71.0781 23.211C70.6894 23.211 70.305 23.2719 69.925 23.3939C69.5535 23.5159 69.2382 23.6857 68.9791 23.9035L68.3442 22.7144C68.707 22.4356 69.1432 22.2222 69.6529 22.074C70.1625 21.9259 70.7024 21.8519 71.2725 21.8519ZM71.0522 27.8108C71.4582 27.8108 71.8167 27.7194 72.1277 27.5364C72.4473 27.3447 72.6719 27.0747 72.8014 26.7262V25.916H71.13C70.1971 25.916 69.7306 26.2253 69.7306 26.8438C69.7306 27.14 69.8472 27.3752 70.0805 27.5495C70.3137 27.7237 70.6376 27.8108 71.0522 27.8108Z" fill="#211747"/>
<path d="M81.9061 23.3155H79.4831V28.9085H77.8635V23.3155H75.4276V21.9303H81.9061V23.3155Z" fill="#211747"/>
<path d="M83.0809 21.9303H84.7006V26.5302L88.5229 21.9303H90V28.9085H88.3804V24.3086L84.571 28.9085H83.0809V21.9303Z" fill="#211747"/>
<path d="M35.1047 17.5524C35.1047 18.8466 34.9645 20.1082 34.6987 21.3231C32.9997 20.9126 31.4492 19.8482 30.4585 18.4169C29.095 16.447 29.3698 13.6804 27.9326 11.8207C26.427 9.87193 24.7395 12.1614 24.1055 13.6138C23.0033 16.139 22.4346 18.9081 21.6117 21.5306C20.6274 19.2783 19.9677 16.871 19.376 14.4893C18.8796 12.4931 18.6107 10.3087 17.5982 8.48608C16.7566 6.97023 15.0999 5.80724 13.3707 6.71662C11.6922 7.59975 11.0332 9.84567 10.4709 11.5011C9.21183 15.2117 8.40362 19.7118 5.03052 22.1768C3.93475 22.9773 2.44833 23.4653 1.02596 23.4781C0.361838 21.6273 0 19.6318 0 17.5524C0 7.85848 7.85862 0 17.552 0C27.2461 0 35.1047 7.85848 35.1047 17.5524Z" fill="url(#paint0_linear)"/>
<path d="M33.5792 24.7198C30.8382 30.8402 24.6927 35.1047 17.552 35.1047C12.3403 35.1047 7.6588 32.8332 4.44388 29.2258C8.93004 27.7618 11.6723 24.3522 12.9109 19.8944C13.495 17.7932 13.6314 15.3993 14.4287 13.3788C14.6727 12.7602 15.1793 12.1281 15.8549 12.6193C16.4307 13.0388 16.5037 14.3593 16.633 14.9734C17.1531 17.4448 17.6756 19.9174 18.1521 22.3971C18.5172 24.2972 18.9943 26.9895 21.1775 27.6484C23.3831 28.3138 24.2656 25.4179 24.6992 23.8386C25.0322 22.6244 25.2493 21.3839 25.467 20.1448C25.5778 19.512 25.6483 17.9187 26.4084 17.6472C27.6374 17.2065 28.2302 20.1288 28.6285 20.8813C29.6666 22.8416 31.4876 24.1108 33.5792 24.7198Z" fill="url(#paint1_linear)"/>
<defs>
<linearGradient id="paint0_linear" x1="27.8026" y1="3.23286" x2="12.9141" y2="34.9804" gradientUnits="userSpaceOnUse">
<stop stop-color="#3CDBC0"/>
<stop offset="0.380208" stop-color="#00A3E0"/>
<stop offset="0.854167" stop-color="#4D3B8F"/>
<stop offset="1" stop-color="#582C83"/>
</linearGradient>
<linearGradient id="paint1_linear" x1="27.8026" y1="3.23286" x2="12.9141" y2="34.9804" gradientUnits="userSpaceOnUse">
<stop stop-color="#3CDBC0"/>
<stop offset="0.380208" stop-color="#00A3E0"/>
<stop offset="0.854167" stop-color="#4D3B8F"/>
<stop offset="1" stop-color="#582C83"/>
</linearGradient>
</defs>
</svg>
