<?xml version="1.0" standalone="no"?>
<!DOCTYPE svg PUBLIC "-//W3C//DTD SVG 1.1//EN" "http://www.w3.org/Graphics/SVG/1.1/DTD/svg11.dtd" >
<svg>
<metadata>
Created by FontForge 20090622 at Thu Dec 19 06:34:40 2019
 By deploy user
</metadata>
<defs>
<font id="Enthalpy298Regular" horiz-adv-x="426" >
  <font-face 
    font-family="Enthalpy 298"
    font-weight="400"
    font-stretch="normal"
    units-per-em="1000"
    panose-1="0 0 0 0 0 0 0 0 0 0"
    ascent="800"
    descent="-200"
    x-height="695"
    cap-height="695"
    bbox="19.4737 -110 962 814"
    underline-thickness="0"
    underline-position="0"
    unicode-range="U+000A-U+2265"
  />
<missing-glyph horiz-adv-x="527" 
d="M50 700h427v-700h-427v700zM78 680l185 -309l186 309h-371zM251 350l-180 300v-601zM264 329l-185 -308h370zM276 350l181 -303v605z" />
    <glyph glyph-name=".notdef" horiz-adv-x="527" 
d="M50 700h427v-700h-427v700zM78 680l185 -309l186 309h-371zM251 350l-180 300v-601zM264 329l-185 -308h370zM276 350l181 -303v605z" />
    <glyph glyph-name=".null" horiz-adv-x="0" 
 />
    <glyph glyph-name=".null" horiz-adv-x="0" 
 />
    <glyph glyph-name="nonmarkingreturn" horiz-adv-x="333" 
 />
    <glyph glyph-name="controlLF" unicode="&#xa;" horiz-adv-x="0" 
 />
    <glyph glyph-name="controlCR" unicode="&#xd;" horiz-adv-x="0" 
 />
    <glyph glyph-name="space" unicode=" " horiz-adv-x="270" 
 />
    <glyph glyph-name="exclam" unicode="!" horiz-adv-x="124" 
d="M104 695l-15 -552h-54l-15 552h84zM62 84q17 0 29.5 -12.5t12.5 -29.5t-12.5 -29.5t-29.5 -12.5t-29.5 12.5t-12.5 29.5t12.5 29.5t29.5 12.5z" />
    <glyph glyph-name="quotedbl" unicode="&#x22;" horiz-adv-x="236" 
d="M106 665q8 -26 -4 -51t-26 -37q-14 -11 -32 -16l-6 19q20 11 25 32q1 3 1 7q-1 -1 -2 -1q-17 0 -29.5 12.5t-12.5 30t12.5 29.5t29.5 12q20 0 32 -15q8 -10 12 -22zM213 665q8 -26 -3.5 -51t-25.5 -37q-14 -11 -32 -16l-6 19q19 11 24 32q1 3 2 7q-1 -1 -3 -1
q-17 0 -29.5 12.5t-12.5 30t12.5 29.5t29.5 12q20 0 33 -15q7 -10 11 -22z" />
    <glyph glyph-name="numbersign" unicode="#" horiz-adv-x="566" 
d="M546 444h-111l-42 -193h96v-84h-114l-37 -167h-84l37 167h-95l-37 -167h-84l37 167h-92v84h110l43 193h-96v84h114l37 167h83l-36 -167h95l37 167h83l-36 -167h92v-84zM309 251l43 193h-96l-42 -193h95z" />
    <glyph glyph-name="dollar" unicode="$" horiz-adv-x="484" 
d="M284 438q78 -16 129 -78t51 -143t-51 -143.5t-129 -78.5v-104h-84v103q-65 11 -113.5 55t-66.5 107l81 21q11 -36 37.5 -62t61.5 -36v284q-58 13 -96.5 60.5t-38.5 108.5t38.5 108.5t96.5 60.5v104h84v-106q43 -12 75.5 -44t44.5 -75l-81 -21q-10 32 -39 50v-171z
M200 451v162q-23 -11 -37 -32.5t-14 -48t14 -48.5t37 -33zM284 82q42 14 69 51t27 83.5t-27 83.5t-69 52v-270z" />
    <glyph glyph-name="percent" unicode="%" horiz-adv-x="645" 
d="M476.5 288q61.5 0 105 -43.5t43.5 -104.5q0 -47 -26.5 -85t-69.5 -54q-25 -10 -52.5 -10t-52.5 10q-42 16 -69 54t-27 85q0 61 43.5 104.5t105 43.5zM476.5 75q26.5 0 46 19t19.5 45.5t-19.5 45.5t-46 19t-45.5 -19t-19 -45.5t19 -45.5t45.5 -19zM217 696
q44 -15 72 -53.5t28 -87.5q0 -61 -43.5 -104.5t-105 -43.5t-105 43.5t-43.5 104.5q0 49 28 87.5t72 53.5q24 8 49 8t48 -8zM168.5 491q26.5 0 45.5 19t19 45.5t-19 45.5t-45.5 19t-45.5 -19t-19 -45.5t19 -45.5t45.5 -19zM516 696h102l-489 -695h-102z" />
    <glyph glyph-name="ampersand" unicode="&#x26;" horiz-adv-x="522" 
d="M345 67q-70 -76 -146 -76q-6 0 -12 1q-32 2 -67.5 19.5t-60.5 49.5q-40 51 -39 119q1 77 59 142l56 62q-35 45 -55 75q-37 52 -32.5 104t43.5 95t97 48q55 4 101.5 -29.5t59.5 -86.5q13 -56 -18 -110l-2 -4l-85 -96l111 -139q10 25 17 50l81 -23q-16 -53 -38 -99l87 -105
l-64 -54l-70 84q-11 -14 -23 -27zM313 161l-126 156l-45 -51q-38 -42 -38 -87q-1 -38 21 -66q14 -18 34 -27.5t36 -10.5q25 -2 57 20.5t61 65.5zM267 571q-5 20 -23.5 35.5t-43.5 15.5h-5q-28 -2 -45 -23t-19 -43t17 -49l43 -59l69 77q12 24 7 46z" />
    <glyph glyph-name="quotesingle" unicode="'" horiz-adv-x="129" 
d="M106 660q8 -26 -4 -51t-26 -37q-14 -11 -32 -16l-6 19q20 11 25 32q1 3 1 7q-1 -1 -2 -1q-17 0 -29.5 12.5t-12.5 30t12.5 29.5t29.5 12q20 0 32 -15q8 -10 12 -22z" />
    <glyph glyph-name="parenleft" unicode="(" horiz-adv-x="220" 
d="M200 804q-96 -221 -96 -457t96 -457h-90q-90 221 -90 456.5t90 457.5h90z" />
    <glyph glyph-name="parenright" unicode=")" horiz-adv-x="220" 
d="M20 -110q97 220 97 456.5t-97 456.5h91q89 -221 89 -456.5t-89 -456.5h-91z" />
    <glyph glyph-name="asterisk" unicode="*" horiz-adv-x="388" 
d="M368 382v-83h-102l51 -88l-72 -42l-51 88l-51 -88l-72 42l50 88h-101v83h101l-50 88l72 42l51 -88l51 88l72 -42l-51 -88h102z" />
    <glyph glyph-name="plus" unicode="+" horiz-adv-x="388" 
d="M236 385h132v-84h-132v-132h-84v132h-132v84h132v132h84v-132z" />
    <glyph glyph-name="comma" unicode="," horiz-adv-x="129" 
d="M106 48q8 -26 -4 -51t-26 -37q-14 -11 -32 -16l-6 19q20 11 25 32q1 3 1 7q-1 -1 -2 -1q-17 0 -29.5 12.5t-12.5 30t12.5 29.5t29.5 12q20 0 32 -15q8 -10 12 -22z" />
    <glyph glyph-name="hyphen" unicode="-" horiz-adv-x="388" 
d="M368 300h-348v84h348v-84z" />
    <glyph glyph-name="period" unicode="." horiz-adv-x="124" 
d="M62 0q-17 0 -29.5 12.5t-12.5 30t12.5 29.5t29.5 12t29.5 -12t12.5 -29.5t-12.5 -30t-29.5 -12.5z" />
    <glyph glyph-name="slash" unicode="/" 
d="M406 695l-302 -695h-84l302 695h84z" />
    <glyph glyph-name="zero" unicode="0" horiz-adv-x="493" 
d="M246 706q93 0 159.5 -67t66.5 -160v-262q0 -93 -66.5 -159.5t-159.5 -66.5t-159.5 66.5t-66.5 159.5v262q0 93 66.5 160t159.5 67zM389 217v262q0 59 -42 101t-100.5 42t-100.5 -42t-42 -101v-262q0 -59 41.5 -100.5t100.5 -41.5t101 41.5t42 100.5z" />
    <glyph glyph-name="one" unicode="1" horiz-adv-x="251" 
d="M146 696h84v-696h-84v482q-30 -24 -67 -37l-41 -12l-18 82l32 10q42 15 68 48.5t26 74.5v1v1v46z" />
    <glyph glyph-name="two" unicode="2" horiz-adv-x="493" 
d="M190 164q-33 -16 -45 -23.5t-21 -20.5q-10 -16 -16 -36h364l-18 -84h-434v55q1 15 3 29q7 47 33 84q12 17 28 30.5t29 20.5t41 20l79 40q60 33 84 49t39 36q33 46 33 115v1q-1 58 -42.5 100t-100.5 42q-45 0 -81.5 -25.5t-51.5 -66.5l-78 29q24 65 82 105.5t129 40.5
q80 0 143 -50q38 -32 60.5 -77t22.5 -96v-2v-1q0 -96 -48 -164q-16 -21 -40 -40.5t-44.5 -32t-66.5 -37.5q-35 -19 -83 -41z" />
    <glyph glyph-name="three" unicode="3" horiz-adv-x="477" 
d="M351 408q49 -30 77.5 -81t28.5 -110q0 -94 -66.5 -160t-159.5 -66q-71 0 -128.5 40t-82.5 104l5 2l49 19l24 9q16 -40 52 -65t81 -25q59 0 100.5 41.5t41.5 100.5t-41.5 100.5t-100.5 41.5h-27l-18 84h45q37 0 63 26t26 63t-26 63.5t-63 26.5q-28 0 -51 -16t-33 -42
l-49 19l-29 11q19 49 63 80t99 31q71 0 122 -50.5t51 -122.5q0 -73 -53 -124z" />
    <glyph glyph-name="four" unicode="4" horiz-adv-x="519" 
d="M405 315h93l-18 -83h-75v-232h-84v232h-301v84l301 380h84v-1v-380zM321 316v265l-210 -265h210z" />
    <glyph glyph-name="five" unicode="5" horiz-adv-x="482" 
d="M419 348q42 -59 42 -131q0 -94 -66.5 -160t-159.5 -66q-69 0 -125.5 38t-83.5 100q-1 4 -3 8l79 29q15 -41 51.5 -66.5t81.5 -25.5q59 0 100.5 42t41.5 101q0 39 -19 72q-24 40 -67 59q-27 11 -56 11t-56 -11q-43 -19 -67 -59l-8 -16l-84 10l2 14l47 399h334l-18 -84
h-242l-24 -201q54 32 116 32q67 0 123 -36q36 -24 61 -59z" />
    <glyph glyph-name="six" unicode="6" horiz-adv-x="493" 
d="M430 348q42 -59 42 -131q0 -94 -66 -160t-160 -66q-69 0 -125.5 38t-82.5 100q-18 42 -18 88v262q0 52 22.5 98t61.5 78q62 50 142 50q72 0 129.5 -40.5t82.5 -105.5l-79 -29q-15 41 -51.5 66.5t-81.5 25.5q-59 0 -100.5 -42t-41.5 -101v-87q9 8 19 15q56 36 123 36
t123 -36q36 -24 61 -59zM246 74q59 0 101 42t42 101q0 39 -20 72q-24 41 -67 59q-27 11 -56 11t-55 -11q-44 -18 -68 -59q-19 -33 -19 -72q0 -59 41.5 -101t100.5 -42z" />
    <glyph glyph-name="seven" unicode="7" horiz-adv-x="427" 
d="M22 695h384l-84 -192l-218 -503h-84l266 612h-246z" />
    <glyph glyph-name="eight" unicode="8" horiz-adv-x="493" 
d="M367 408q48 -30 76.5 -81t28.5 -110q0 -94 -66 -160t-159.5 -66t-160 66t-66.5 160q0 59 28.5 110t77.5 81q-53 51 -53 124q0 72 51 122.5t122.5 50.5t122 -50.5t50.5 -122.5q0 -73 -52 -124zM157 532q0 -37 26 -63t63 -26t63 26t26 63t-26 63.5t-63 26.5t-63 -26.5
t-26 -63.5zM246 75q59 0 101 41.5t42 100.5t-42 100.5t-101 41.5t-100.5 -41.5t-41.5 -100.5t41.5 -100.5t100.5 -41.5z" />
    <glyph glyph-name="nine" unicode="9" horiz-adv-x="493" 
d="M62 348q-42 59 -42 131q0 94 66.5 160t159.5 66q69 0 125.5 -38t83.5 -100q17 -42 17 -88v-262q0 -52 -22 -98t-61 -78q-63 -50 -143 -50q-71 0 -129 40.5t-82 105.5l78 29q15 -40 51.5 -66t81.5 -26q59 0 101 42t42 101v87q-10 -8 -20 -15q-56 -36 -123 -36t-123 36
q-36 24 -61 59zM246 622q-59 0 -100.5 -42t-41.5 -101q0 -39 19 -72q24 -41 67 -59q27 -11 56 -11t56 11q43 18 67 59q20 33 20 72q0 59 -42 101t-101 42z" />
    <glyph glyph-name="colon" unicode=":" horiz-adv-x="124" 
d="M62 84q17 0 29.5 -12t12.5 -29.5t-12.5 -30t-29.5 -12.5t-29.5 12.5t-12.5 30t12.5 29.5t29.5 12zM62 474q17 0 29.5 -12t12.5 -29.5t-12.5 -30t-29.5 -12.5t-29.5 12.5t-12.5 30t12.5 29.5t29.5 12z" />
    <glyph glyph-name="semicolon" unicode=";" horiz-adv-x="129" 
d="M64.5 475q17.5 0 29.5 -12t12 -29.5t-12 -30t-29.5 -12.5t-30 12.5t-12.5 30t12.5 29.5t30 12zM106 48q8 -26 -4 -51t-26 -37q-14 -11 -32 -16l-6 19q20 11 25 32q1 3 1 7q-1 -1 -2 -1q-17 0 -29.5 12.5t-12.5 30t12.5 29.5t29.5 12q20 0 32 -15q8 -10 12 -22z" />
    <glyph glyph-name="less" unicode="&#x3c;" horiz-adv-x="388" 
d="M20 390l348 102v-88l-200 -58l200 -59v-87l-348 102v88z" />
    <glyph glyph-name="equal" unicode="=" horiz-adv-x="388" 
d="M20 302h348v-84h-348v84zM20 469h348v-84h-348v84z" />
    <glyph glyph-name="greater" unicode="&#x3e;" horiz-adv-x="388" 
d="M20 492l348 -102v-88l-348 -102v87l200 59l-200 58v88z" />
    <glyph glyph-name="question" unicode="?" horiz-adv-x="384" 
d="M192 696q71 0 121 -51t50 -122q0 -10 -1 -19q-2 -20 -9 -39q-10 -31 -47 -75q-18 -21 -30 -32.5t-17 -18.5q-34 -39 -41 -105l-3 -91h-54l-2 93q-2 71 23 117q16 29 52 72q18 20 32 47l6 13l2 6q6 18 6 32q0 37 -26 63t-62.5 26t-62 -26t-25.5 -63q0 -7 1 -15l-82 -17
q-3 17 -3 32q0 71 50.5 122t121.5 51zM188 84q17 0 29.5 -12.5t12.5 -29.5t-12.5 -29.5t-29.5 -12.5t-29.5 12.5t-12.5 29.5t12.5 29.5t29.5 12.5z" />
    <glyph glyph-name="at" unicode="@" horiz-adv-x="754" 
d="M708 482q40 -100 19 -206l-4 -10q-27 -55 -82.5 -76t-107.5 4q-20 10 -36 26q-32 -32 -75 -46q-14 -4 -30.5 -7t-53 1.5t-67.5 22.5l-10.5 7.5t-19.5 17t-23.5 27t-20.5 37.5t-12 48q-7 60 26 114t89 77q74 31 152 -5v11q29 0 87 -1l1 -198q-2 -17 6 -32.5t24 -23.5
q20 -9 38.5 -4t29.5 19q5 6 8 13q14 80 -16 154q-5 12 -14 28.5t-34 46.5t-55 50q-95 62 -206 39t-173 -117.5t-39 -205.5t118 -173q98 -64 211 -38l19 -82q-40 -9 -81 -9q-106 0 -195 59q-81 53 -123.5 138t-37.5 180t58.5 176t138.5 123.5t180 37.5t176 -58
q93 -62 135 -165zM367 244q22 0 43 11t28.5 19l13.5 15v120q-35 44 -85 43q-40 0 -72 -30t-32 -74t32 -74t72 -30z" />
    <glyph glyph-name="A" unicode="A" 
d="M255 695l150 -695h-84l-4 20l-1 5q-8 33 -32 59.5t-59 38.5l-89 26l-32 -149h-84l151 695h84zM251 203q15 -6 29 -13l-67 313l-59 -272z" />
    <glyph glyph-name="A" unicode="&#xc5;" 
d="M255 695l150 -695h-84l-4 20l-1 5q-8 33 -32 59.5t-59 38.5l-89 26l-32 -149h-84l151 695h84zM251 203q15 -6 29 -13l-67 313l-59 -272z" />
    <glyph glyph-name="A" unicode="&#xc4;" 
d="M255 695l150 -695h-84l-4 20l-1 5q-8 33 -32 59.5t-59 38.5l-89 26l-32 -149h-84l151 695h84zM251 203q15 -6 29 -13l-67 313l-59 -272z" />
    <glyph glyph-name="A" unicode="&#xc3;" 
d="M255 695l150 -695h-84l-4 20l-1 5q-8 33 -32 59.5t-59 38.5l-89 26l-32 -149h-84l151 695h84zM251 203q15 -6 29 -13l-67 313l-59 -272z" />
    <glyph glyph-name="A" unicode="&#xc2;" 
d="M255 695l150 -695h-84l-4 20l-1 5q-8 33 -32 59.5t-59 38.5l-89 26l-32 -149h-84l151 695h84zM251 203q15 -6 29 -13l-67 313l-59 -272z" />
    <glyph glyph-name="A" unicode="&#xc1;" 
d="M255 695l150 -695h-84l-4 20l-1 5q-8 33 -32 59.5t-59 38.5l-89 26l-32 -149h-84l151 695h84zM251 203q15 -6 29 -13l-67 313l-59 -272z" />
    <glyph glyph-name="A" unicode="&#xc0;" 
d="M255 695l150 -695h-84l-4 20l-1 5q-8 33 -32 59.5t-59 38.5l-89 26l-32 -149h-84l151 695h84zM251 203q15 -6 29 -13l-67 313l-59 -272z" />
    <glyph glyph-name="B" unicode="B" 
d="M306 395q45 -30 71.5 -76t27.5 -99q2 -81 -56 -145t-143 -75h-2h-184v695h184h3q62 -10 105.5 -56t47.5 -107q5 -80 -54 -137zM104 611v-146l109 -32q30 11 47.5 37t15.5 57t-24 55t-54 29h-94zM198 83q53 8 88.5 47t34.5 89q0 40 -26 74t-68 49l-16 4l-107 32v-295h94z
" />
    <glyph glyph-name="C" unicode="C" horiz-adv-x="660" 
d="M607 76q-100 -85 -230 -85q-97 0 -179 48t-130 130.5t-48 178.5q0 72 27 137t78 115.5t116 78t136 27.5q130 0 230 -85l32 -27l-54 -64l-32 27q-76 65 -176 65q-113 0 -193 -80.5t-80 -193.5t80 -193t193 -80q100 0 176 65l32 27l54 -64z" />
    <glyph glyph-name="C" unicode="&#xc7;" horiz-adv-x="660" 
d="M607 76q-100 -85 -230 -85q-97 0 -179 48t-130 130.5t-48 178.5q0 72 27 137t78 115.5t116 78t136 27.5q130 0 230 -85l32 -27l-54 -64l-32 27q-76 65 -176 65q-113 0 -193 -80.5t-80 -193.5t80 -193t193 -80q100 0 176 65l32 27l54 -64z" />
    <glyph glyph-name="D" unicode="D" horiz-adv-x="589" 
d="M347 669q99 -39 160.5 -126.5t61.5 -194.5q0 -70 -27 -133t-78 -113q-59 -57 -137 -83q-52 -18 -107 -19h-116h-84v695h192q70 0 135 -26zM219 82q110 2 188 79.5t78 186.5q0 110 -80 188t-193 78h-108v-532h101q3 -1 6.5 -1t7.5 1z" />
    <glyph glyph-name="E" unicode="E" horiz-adv-x="425" 
d="M387 84l18 -84h-385v695h385l-18 -83h-283v-149h191l-19 -84h-172v-295h283z" />
    <glyph glyph-name="E" unicode="&#xcb;" horiz-adv-x="425" 
d="M387 84l18 -84h-385v695h385l-18 -83h-283v-149h191l-19 -84h-172v-295h283z" />
    <glyph glyph-name="E" unicode="&#xca;" horiz-adv-x="425" 
d="M387 84l18 -84h-385v695h385l-18 -83h-283v-149h191l-19 -84h-172v-295h283z" />
    <glyph glyph-name="E" unicode="&#xc9;" horiz-adv-x="425" 
d="M387 84l18 -84h-385v695h385l-18 -83h-283v-149h191l-19 -84h-172v-295h283z" />
    <glyph glyph-name="E" unicode="&#xc8;" horiz-adv-x="425" 
d="M387 84l18 -84h-385v695h385l-18 -83h-283v-149h191l-19 -84h-172v-295h283z" />
    <glyph glyph-name="F" unicode="F" horiz-adv-x="425" 
d="M387 612h-283v-149h191l-19 -84h-172v-379h-84v695h385z" />
    <glyph glyph-name="G" unicode="G" horiz-adv-x="660" 
d="M392 367h247v-264l-32 -27q-24 -21 -51 -37q-84 -48 -179 -48q-97 0 -179 48t-130 130.5t-48 178.5q0 72 27 137t78 115.5t116 78t136 27.5q130 0 230 -85l32 -27l-54 -64l-32 27q-76 65 -176 65q-113 0 -193 -80.5t-80 -193.5t80 -193t193 -80q100 0 176 65l3 2v141
h-146z" />
    <glyph glyph-name="H" unicode="H" 
d="M321 695h84v-695h-84v232h-217v-232h-84v695h84v-380h217v380z" />
    <glyph glyph-name="I" unicode="I" horiz-adv-x="124" 
d="M104 0h-84v695h84v-695z" />
    <glyph glyph-name="I" unicode="&#xcf;" horiz-adv-x="124" 
d="M104 0h-84v695h84v-695z" />
    <glyph glyph-name="I" unicode="&#xce;" horiz-adv-x="124" 
d="M104 0h-84v695h84v-695z" />
    <glyph glyph-name="I" unicode="&#xcd;" horiz-adv-x="124" 
d="M104 0h-84v695h84v-695z" />
    <glyph glyph-name="I" unicode="&#xcc;" horiz-adv-x="124" 
d="M104 0h-84v695h84v-695z" />
    <glyph glyph-name="J" unicode="J" 
d="M321 696h84v-512q0 -80 -56.5 -136.5t-135.5 -56.5t-135 55t-58 134h84q1 -44 33 -74.5t76 -30.5q45 0 76.5 32t31.5 77v512z" />
    <glyph glyph-name="K" unicode="K" 
d="M405 696l-194 -248l194 -448h-84l-164 380l-53 -68v-312h-84v696h84v-248l195 248h106z" />
    <glyph glyph-name="L" unicode="L" horiz-adv-x="425" 
d="M386 84l18 -84h-384v696h84v-612h282z" />
    <glyph glyph-name="M" unicode="M" horiz-adv-x="474" 
d="M370 696h84v-696h-84v503l-49 -113l-36 -84l-6 -14l-42 -96l-42 96l-6 14l-36 84l-49 113v-503h-84v696h84l132 -306l1 -1v1z" />
    <glyph glyph-name="N" unicode="N" 
d="M20 696h84l217 -502v502h84v-696h-84l-217 503v-503h-84v696z" />
    <glyph glyph-name="N" unicode="&#xd1;" 
d="M20 696h84l217 -502v502h84v-696h-84l-217 503v-503h-84v696z" />
    <glyph glyph-name="O" unicode="O" horiz-adv-x="755" 
d="M734 348q0 -97 -47.5 -179t-130 -130t-179.5 -48t-179 48t-130 130t-48 179t48 179.5t130 130t179 47.5t179.5 -47.5t130 -130t47.5 -179.5zM651 348q0 113 -80.5 193.5t-193.5 80.5t-193 -80.5t-80 -193.5t80 -193t193 -80t193.5 80t80.5 193z" />
    <glyph glyph-name="O" unicode="&#xd8;" horiz-adv-x="755" 
d="M734 348q0 -97 -47.5 -179t-130 -130t-179.5 -48t-179 48t-130 130t-48 179t48 179.5t130 130t179 47.5t179.5 -47.5t130 -130t47.5 -179.5zM651 348q0 113 -80.5 193.5t-193.5 80.5t-193 -80.5t-80 -193.5t80 -193t193 -80t193.5 80t80.5 193z" />
    <glyph glyph-name="O" unicode="&#xd6;" horiz-adv-x="755" 
d="M734 348q0 -97 -47.5 -179t-130 -130t-179.5 -48t-179 48t-130 130t-48 179t48 179.5t130 130t179 47.5t179.5 -47.5t130 -130t47.5 -179.5zM651 348q0 113 -80.5 193.5t-193.5 80.5t-193 -80.5t-80 -193.5t80 -193t193 -80t193.5 80t80.5 193z" />
    <glyph glyph-name="O" unicode="&#xd5;" horiz-adv-x="755" 
d="M734 348q0 -97 -47.5 -179t-130 -130t-179.5 -48t-179 48t-130 130t-48 179t48 179.5t130 130t179 47.5t179.5 -47.5t130 -130t47.5 -179.5zM651 348q0 113 -80.5 193.5t-193.5 80.5t-193 -80.5t-80 -193.5t80 -193t193 -80t193.5 80t80.5 193z" />
    <glyph glyph-name="O" unicode="&#xd4;" horiz-adv-x="755" 
d="M734 348q0 -97 -47.5 -179t-130 -130t-179.5 -48t-179 48t-130 130t-48 179t48 179.5t130 130t179 47.5t179.5 -47.5t130 -130t47.5 -179.5zM651 348q0 113 -80.5 193.5t-193.5 80.5t-193 -80.5t-80 -193.5t80 -193t193 -80t193.5 80t80.5 193z" />
    <glyph glyph-name="O" unicode="&#xd3;" horiz-adv-x="755" 
d="M734 348q0 -97 -47.5 -179t-130 -130t-179.5 -48t-179 48t-130 130t-48 179t48 179.5t130 130t179 47.5t179.5 -47.5t130 -130t47.5 -179.5zM651 348q0 113 -80.5 193.5t-193.5 80.5t-193 -80.5t-80 -193.5t80 -193t193 -80t193.5 80t80.5 193z" />
    <glyph glyph-name="O" unicode="&#xd2;" horiz-adv-x="755" 
d="M734 348q0 -97 -47.5 -179t-130 -130t-179.5 -48t-179 48t-130 130t-48 179t48 179.5t130 130t179 47.5t179.5 -47.5t130 -130t47.5 -179.5zM651 348q0 113 -80.5 193.5t-193.5 80.5t-193 -80.5t-80 -193.5t80 -193t193 -80t193.5 80t80.5 193z" />
    <glyph glyph-name="P" unicode="P" 
d="M206 696q85 -11 143 -75t56 -146q-1 -67 -43 -122t-108 -78l-150 -45v-230h-84v696h184h2zM227 354q42 15 68 48.5t26 74.5q1 49 -34.5 88t-88.5 47h-94v-294z" />
    <glyph glyph-name="Q" unicode="Q" horiz-adv-x="755" 
d="M734 348q0 -134 -88 -235l41 -41l-46 -72l-57 57q-93 -66 -207 -66q-97 0 -179 48t-130 130t-48 179t48 179.5t130 130t179 47.5t179.5 -47.5t130 -130t47.5 -179.5zM531 229l56 -56q64 76 64 175q0 113 -80.5 193.5t-193.5 80.5t-193 -80.5t-80 -193.5t80 -193t193 -80
q80 0 147 42l-40 40z" />
    <glyph glyph-name="R" unicode="R" 
d="M20 695h184h2q85 -11 143 -75t56 -145q-1 -55 -29.5 -102.5t-76.5 -77.5l106 -295h-87l-95 265l-119 -35v-230h-84v695zM104 612v-295l123 36q42 15 68 49t26 74q1 50 -34.5 89t-88.5 47h-94z" />
    <glyph glyph-name="S" unicode="S" horiz-adv-x="485" 
d="M404 580l-81 -21q-9 28 -32.5 45.5t-52.5 17.5q-37 0 -63 -26.5t-26 -63t26 -63t63 -26.5q93 0 159.5 -66t66.5 -159.5t-66.5 -160t-159.5 -66.5q-77 0 -137.5 46.5t-80.5 118.5l81 21q13 -45 51 -73.5t86 -28.5q59 0 100.5 41.5t41.5 100.5t-41.5 101t-100.5 42
q-72 0 -122.5 50.5t-50.5 122t50.5 122.5t122.5 51q58 0 104 -35.5t62 -90.5z" />
    <glyph glyph-name="T" unicode="T" 
d="M20 695h385l-18 -83h-133v-612h-83v612h-151v83z" />
    <glyph glyph-name="U" unicode="U" 
d="M321 696h84v-513q0 -79 -56.5 -135.5t-136 -56.5t-136 56.5t-56.5 135.5v513h84v-513q0 -45 32 -76.5t77 -31.5t76.5 31.5t31.5 76.5v513z" />
    <glyph glyph-name="U" unicode="&#xdc;" 
d="M321 696h84v-513q0 -79 -56.5 -135.5t-136 -56.5t-136 56.5t-56.5 135.5v513h84v-513q0 -45 32 -76.5t77 -31.5t76.5 31.5t31.5 76.5v513z" />
    <glyph glyph-name="U" unicode="&#xdb;" 
d="M321 696h84v-513q0 -79 -56.5 -135.5t-136 -56.5t-136 56.5t-56.5 135.5v513h84v-513q0 -45 32 -76.5t77 -31.5t76.5 31.5t31.5 76.5v513z" />
    <glyph glyph-name="U" unicode="&#xda;" 
d="M321 696h84v-513q0 -79 -56.5 -135.5t-136 -56.5t-136 56.5t-56.5 135.5v513h84v-513q0 -45 32 -76.5t77 -31.5t76.5 31.5t31.5 76.5v513z" />
    <glyph glyph-name="U" unicode="&#xd9;" 
d="M321 696h84v-513q0 -79 -56.5 -135.5t-136 -56.5t-136 56.5t-56.5 135.5v513h84v-513q0 -45 32 -76.5t77 -31.5t76.5 31.5t31.5 76.5v513z" />
    <glyph glyph-name="V" unicode="V" 
d="M213 196l109 499h84l-151 -691l-1 -4h-41h-41l-1 4l-151 691h84z" />
    <glyph glyph-name="W" unicode="W" horiz-adv-x="728" 
d="M473 5l-109 499l-109 -499l-1 -5h-41h-41l-1 5l-151 690l84 1l109 -500l109 500h42h42l109 -500l109 500l84 -1l-151 -690l-1 -5h-41h-41z" />
    <glyph glyph-name="X" unicode="X" 
d="M406 696l-151 -348l151 -348h-84l-109 252l-109 -252h-84l151 348l-151 348h84l109 -252l109 252h84z" />
    <glyph glyph-name="Y" unicode="Y" 
d="M322 695h84l-151 -347v-348h-84v348l-151 347h84l109 -251z" />
    <glyph glyph-name="Y" unicode="&#x178;" 
d="M322 695h84l-151 -347v-348h-84v348l-151 347h84l109 -251z" />
    <glyph glyph-name="Y" unicode="&#xdd;" 
d="M322 695h84l-151 -347v-348h-84v348l-151 347h84l109 -251z" />
    <glyph glyph-name="Z" unicode="Z" 
d="M140 84h246l18 -84h-384l266 612h-246l-18 83h384z" />
    <glyph glyph-name="bracketleft" unicode="[" horiz-adv-x="198" 
d="M20 809h158v-84h-74v-746h74v-84h-158v914z" />
    <glyph glyph-name="backslash" unicode="\" 
d="M104 695l302 -695h-84l-302 695h84z" />
    <glyph glyph-name="bracketright" unicode="]" horiz-adv-x="198" 
d="M20 809h158v-914h-158v84h74v746h-74v84z" />
    <glyph glyph-name="asciicircum" unicode="^" horiz-adv-x="326" 
d="M163 696l143 -143l-59 -59l-84 84l-84 -84l-59 59z" />
    <glyph glyph-name="underscore" unicode="_" horiz-adv-x="562" 
d="M542 0h-522v84h522v-84z" />
    <glyph glyph-name="a" unicode="a" 
d="M255 696l150 -696h-84l-4 21l-1 5q-8 33 -32 59t-59 38l-89 27l-32 -150h-84l151 696h84zM251 203q15 -5 29 -12l-67 312l-59 -271z" />
    <glyph glyph-name="a" unicode="&#xe5;" 
d="M255 696l150 -696h-84l-4 21l-1 5q-8 33 -32 59t-59 38l-89 27l-32 -150h-84l151 696h84zM251 203q15 -5 29 -12l-67 312l-59 -271z" />
    <glyph glyph-name="a" unicode="&#xe4;" 
d="M255 696l150 -696h-84l-4 21l-1 5q-8 33 -32 59t-59 38l-89 27l-32 -150h-84l151 696h84zM251 203q15 -5 29 -12l-67 312l-59 -271z" />
    <glyph glyph-name="a" unicode="&#xe3;" 
d="M255 696l150 -696h-84l-4 21l-1 5q-8 33 -32 59t-59 38l-89 27l-32 -150h-84l151 696h84zM251 203q15 -5 29 -12l-67 312l-59 -271z" />
    <glyph glyph-name="a" unicode="&#xe2;" 
d="M255 696l150 -696h-84l-4 21l-1 5q-8 33 -32 59t-59 38l-89 27l-32 -150h-84l151 696h84zM251 203q15 -5 29 -12l-67 312l-59 -271z" />
    <glyph glyph-name="a" unicode="&#xe1;" 
d="M255 696l150 -696h-84l-4 21l-1 5q-8 33 -32 59t-59 38l-89 27l-32 -150h-84l151 696h84zM251 203q15 -5 29 -12l-67 312l-59 -271z" />
    <glyph glyph-name="a" unicode="&#xe0;" 
d="M255 696l150 -696h-84l-4 21l-1 5q-8 33 -32 59t-59 38l-89 27l-32 -150h-84l151 696h84zM251 203q15 -5 29 -12l-67 312l-59 -271z" />
    <glyph glyph-name="b" unicode="b" 
d="M306 395q45 -30 71.5 -76t27.5 -98q2 -82 -56 -146t-143 -75h-2h-184v695h184h3q62 -9 105.5 -55t47.5 -107q5 -80 -54 -138zM104 612v-146l109 -33q30 11 47.5 37t15.5 57t-24 55t-54 30h-94zM198 84q53 7 88.5 46.5t34.5 88.5q0 40 -26 74t-68 49l-16 5l-107 31v-294
h94z" />
    <glyph glyph-name="c" unicode="c" horiz-adv-x="660" 
d="M607 75q-100 -84 -230 -84q-97 0 -179 47.5t-130 130t-48 179.5q0 71 27 136t78 116t116 78t136 27q130 0 230 -85l32 -27l-54 -64l-32 27q-76 65 -176 65q-113 0 -193 -80t-80 -193t80 -193.5t193 -80.5q100 0 176 65l32 27l54 -64z" />
    <glyph glyph-name="c" unicode="&#xe7;" horiz-adv-x="660" 
d="M607 75q-100 -84 -230 -84q-97 0 -179 47.5t-130 130t-48 179.5q0 71 27 136t78 116t116 78t136 27q130 0 230 -85l32 -27l-54 -64l-32 27q-76 65 -176 65q-113 0 -193 -80t-80 -193t80 -193.5t193 -80.5q100 0 176 65l32 27l54 -64z" />
    <glyph glyph-name="d" unicode="d" horiz-adv-x="589" 
d="M347 669q99 -39 160.5 -126.5t61.5 -194.5q0 -70 -27 -133t-78 -113q-59 -57 -137 -83q-52 -18 -107 -19h-116h-84v695h192q70 0 135 -26zM219 82q110 2 188 79.5t78 186.5q0 110 -80 188t-193 78h-108v-532h101q3 -1 6.5 -1t7.5 1z" />
    <glyph glyph-name="e" unicode="e" horiz-adv-x="425" 
d="M387 84l18 -84h-385v696h385l-18 -84h-283v-149h191l-19 -84h-172v-295h283z" />
    <glyph glyph-name="e" unicode="&#xeb;" horiz-adv-x="425" 
d="M387 84l18 -84h-385v696h385l-18 -84h-283v-149h191l-19 -84h-172v-295h283z" />
    <glyph glyph-name="e" unicode="&#xea;" horiz-adv-x="425" 
d="M387 84l18 -84h-385v696h385l-18 -84h-283v-149h191l-19 -84h-172v-295h283z" />
    <glyph glyph-name="e" unicode="&#xe9;" horiz-adv-x="425" 
d="M387 84l18 -84h-385v696h385l-18 -84h-283v-149h191l-19 -84h-172v-295h283z" />
    <glyph glyph-name="e" unicode="&#xe8;" horiz-adv-x="425" 
d="M387 84l18 -84h-385v696h385l-18 -84h-283v-149h191l-19 -84h-172v-295h283z" />
    <glyph glyph-name="f" unicode="f" horiz-adv-x="425" 
d="M387 612h-283v-149h191l-19 -84h-172v-379h-84v696h385z" />
    <glyph glyph-name="g" unicode="g" horiz-adv-x="660" 
d="M392 366h247v-264l-32 -27q-24 -20 -51 -36q-84 -48 -179 -48q-97 0 -179 47.5t-130 130t-48 179.5q0 71 27 136t78 116t116 78t136 27q130 0 230 -85l32 -27l-54 -64l-32 27q-76 65 -176 65q-113 0 -193 -80t-80 -193t80 -193.5t193 -80.5q100 0 176 65l3 2v142h-146z
" />
    <glyph glyph-name="h" unicode="h" 
d="M321 695h84v-695h-84v232h-217v-232h-84v695h84v-379h217v379z" />
    <glyph glyph-name="i" unicode="i" horiz-adv-x="124" 
d="M104 0h-84v695h84v-695z" />
    <glyph glyph-name="i" unicode="&#xef;" horiz-adv-x="124" 
d="M104 0h-84v695h84v-695z" />
    <glyph glyph-name="i" unicode="&#xee;" horiz-adv-x="124" 
d="M104 0h-84v695h84v-695z" />
    <glyph glyph-name="i" unicode="&#xed;" horiz-adv-x="124" 
d="M104 0h-84v695h84v-695z" />
    <glyph glyph-name="i" unicode="&#xec;" horiz-adv-x="124" 
d="M104 0h-84v695h84v-695z" />
    <glyph glyph-name="j" unicode="j" 
d="M321 696h84v-512q0 -80 -56.5 -136.5t-135.5 -56.5t-135 55t-58 134h84q1 -44 33 -74.5t76 -30.5q45 0 76.5 32t31.5 77v512z" />
    <glyph glyph-name="k" unicode="k" 
d="M405 695l-194 -247l194 -448h-84l-164 379l-53 -67v-312h-84v695h84v-248l195 248h106z" />
    <glyph glyph-name="l" unicode="l" horiz-adv-x="425" 
d="M386 83l18 -83h-384v695h84v-612h282z" />
    <glyph glyph-name="m" unicode="m" horiz-adv-x="474" 
d="M370 695h84v-695h-84v502l-49 -113l-36 -83l-6 -14v-1l-42 -96l-42 96l-6 15l-36 83l-49 113v-502h-84v695h84l132 -306l1 -1v1z" />
    <glyph glyph-name="n" unicode="n" 
d="M20 695h84l217 -502v502h84v-695h-84l-217 502v-502h-84v695z" />
    <glyph glyph-name="n" unicode="&#xf1;" 
d="M20 695h84l217 -502v502h84v-695h-84l-217 502v-502h-84v695z" />
    <glyph glyph-name="o" unicode="o" horiz-adv-x="755" 
d="M734 348.5q0 -96.5 -47.5 -179t-130 -130.5t-179.5 -48t-179 48t-130 130.5t-48 179t48 179t130 130.5t179 48t179.5 -48t130 -130.5t47.5 -179zM651 348.5q0 113.5 -80.5 193.5t-193.5 80t-193 -80t-80 -193.5t80 -193.5t193 -80t193.5 80t80.5 193.5z" />
    <glyph glyph-name="o" unicode="&#xf8;" horiz-adv-x="755" 
d="M734 348.5q0 -96.5 -47.5 -179t-130 -130.5t-179.5 -48t-179 48t-130 130.5t-48 179t48 179t130 130.5t179 48t179.5 -48t130 -130.5t47.5 -179zM651 348.5q0 113.5 -80.5 193.5t-193.5 80t-193 -80t-80 -193.5t80 -193.5t193 -80t193.5 80t80.5 193.5z" />
    <glyph glyph-name="o" unicode="&#xf6;" horiz-adv-x="755" 
d="M734 348.5q0 -96.5 -47.5 -179t-130 -130.5t-179.5 -48t-179 48t-130 130.5t-48 179t48 179t130 130.5t179 48t179.5 -48t130 -130.5t47.5 -179zM651 348.5q0 113.5 -80.5 193.5t-193.5 80t-193 -80t-80 -193.5t80 -193.5t193 -80t193.5 80t80.5 193.5z" />
    <glyph glyph-name="o" unicode="&#xf5;" horiz-adv-x="755" 
d="M734 348.5q0 -96.5 -47.5 -179t-130 -130.5t-179.5 -48t-179 48t-130 130.5t-48 179t48 179t130 130.5t179 48t179.5 -48t130 -130.5t47.5 -179zM651 348.5q0 113.5 -80.5 193.5t-193.5 80t-193 -80t-80 -193.5t80 -193.5t193 -80t193.5 80t80.5 193.5z" />
    <glyph glyph-name="o" unicode="&#xf4;" horiz-adv-x="755" 
d="M734 348.5q0 -96.5 -47.5 -179t-130 -130.5t-179.5 -48t-179 48t-130 130.5t-48 179t48 179t130 130.5t179 48t179.5 -48t130 -130.5t47.5 -179zM651 348.5q0 113.5 -80.5 193.5t-193.5 80t-193 -80t-80 -193.5t80 -193.5t193 -80t193.5 80t80.5 193.5z" />
    <glyph glyph-name="o" unicode="&#xf3;" horiz-adv-x="755" 
d="M734 348.5q0 -96.5 -47.5 -179t-130 -130.5t-179.5 -48t-179 48t-130 130.5t-48 179t48 179t130 130.5t179 48t179.5 -48t130 -130.5t47.5 -179zM651 348.5q0 113.5 -80.5 193.5t-193.5 80t-193 -80t-80 -193.5t80 -193.5t193 -80t193.5 80t80.5 193.5z" />
    <glyph glyph-name="o" unicode="&#xf2;" horiz-adv-x="755" 
d="M734 348.5q0 -96.5 -47.5 -179t-130 -130.5t-179.5 -48t-179 48t-130 130.5t-48 179t48 179t130 130.5t179 48t179.5 -48t130 -130.5t47.5 -179zM651 348.5q0 113.5 -80.5 193.5t-193.5 80t-193 -80t-80 -193.5t80 -193.5t193 -80t193.5 80t80.5 193.5z" />
    <glyph glyph-name="p" unicode="p" 
d="M206 695q85 -11 143 -75t56 -146q-1 -66 -43 -121.5t-108 -78.5l-150 -44v-230h-84v695h184h2zM227 353q42 15 68 49t26 74q1 50 -34.5 89t-88.5 47h-94v-295z" />
    <glyph glyph-name="q" unicode="q" horiz-adv-x="755" 
d="M734 348q0 -133 -88 -234l41 -41l-46 -72l-57 56q-93 -66 -207 -66q-97 0 -179 48t-130 130.5t-48 179t48 179t130 130.5t179 48t179.5 -48t130 -130.5t47.5 -179.5zM531 229l56 -56q64 76 64 175q0 114 -80.5 194t-193.5 80t-193 -80t-80 -193.5t80 -193.5t193 -80
q80 0 147 43l-40 39z" />
    <glyph glyph-name="r" unicode="r" 
d="M20 696h184l2 -1q85 -11 143 -74.5t56 -145.5q-1 -55 -29.5 -102.5t-76.5 -76.5l106 -296h-87l-95 265l-119 -35v-230h-84v696zM104 612v-295l123 37q42 14 68 48t26 75q1 49 -34.5 88t-88.5 47h-94z" />
    <glyph glyph-name="s" unicode="s" horiz-adv-x="485" 
d="M404 580l-81 -21q-9 28 -32.5 45.5t-52.5 17.5q-37 0 -63 -26.5t-26 -63t26 -63t63 -26.5q93 0 159.5 -66t66.5 -159.5t-66.5 -160t-159.5 -66.5q-77 0 -137.5 46.5t-80.5 118.5l81 21q13 -45 51 -73.5t86 -28.5q59 0 100.5 41.5t41.5 100.5t-41.5 101t-100.5 42
q-72 0 -122.5 50.5t-50.5 122t50.5 122.5t122.5 51q58 0 104 -35.5t62 -90.5z" />
    <glyph glyph-name="t" unicode="t" 
d="M20 696h385v-1l-18 -83h-133v-612h-83v612h-151v84z" />
    <glyph glyph-name="u" unicode="u" 
d="M321 696h84v-513q0 -79 -56.5 -135.5t-136 -56.5t-136 56.5t-56.5 135.5v513h84v-513q0 -45 32 -76.5t77 -31.5t76.5 31.5t31.5 76.5v513z" />
    <glyph glyph-name="u" unicode="&#xfc;" 
d="M321 696h84v-513q0 -79 -56.5 -135.5t-136 -56.5t-136 56.5t-56.5 135.5v513h84v-513q0 -45 32 -76.5t77 -31.5t76.5 31.5t31.5 76.5v513z" />
    <glyph glyph-name="u" unicode="&#xfb;" 
d="M321 696h84v-513q0 -79 -56.5 -135.5t-136 -56.5t-136 56.5t-56.5 135.5v513h84v-513q0 -45 32 -76.5t77 -31.5t76.5 31.5t31.5 76.5v513z" />
    <glyph glyph-name="u" unicode="&#xfa;" 
d="M321 696h84v-513q0 -79 -56.5 -135.5t-136 -56.5t-136 56.5t-56.5 135.5v513h84v-513q0 -45 32 -76.5t77 -31.5t76.5 31.5t31.5 76.5v513z" />
    <glyph glyph-name="u" unicode="&#xf9;" 
d="M321 696h84v-513q0 -79 -56.5 -135.5t-136 -56.5t-136 56.5t-56.5 135.5v513h84v-513q0 -45 32 -76.5t77 -31.5t76.5 31.5t31.5 76.5v513z" />
    <glyph glyph-name="v" unicode="v" 
d="M213 196l109 500l84 -1l-151 -690l-1 -5h-41h-41l-1 5l-151 690l84 1z" />
    <glyph glyph-name="w" unicode="w" horiz-adv-x="728" 
d="M473 4l-109 500l-109 -500l-1 -4h-41h-41l-1 4l-151 691h84l109 -499l109 499h42h42l109 -499l109 499h84l-151 -691l-1 -4h-41h-41z" />
    <glyph glyph-name="x" unicode="x" 
d="M406 695l-151 -348l151 -347h-84l-109 251l-109 -251h-84l151 347l-151 348h84l109 -251l109 251h84z" />
    <glyph glyph-name="y" unicode="y" 
d="M322 695h84l-151 -348v-347h-84v347l-151 348h84l109 -251z" />
    <glyph glyph-name="y" unicode="&#xff;" 
d="M322 695h84l-151 -348v-347h-84v347l-151 348h84l109 -251z" />
    <glyph glyph-name="y" unicode="&#xfd;" 
d="M322 695h84l-151 -348v-347h-84v347l-151 348h84l109 -251z" />
    <glyph glyph-name="z" unicode="z" 
d="M140 84h246l18 -84h-384l266 612h-246l-18 83h384z" />
    <glyph glyph-name="braceleft" unicode="{" horiz-adv-x="362" 
d="M222 492q-9 -87 -79 -140q70 -54 79 -141v-113q0 -49 35 -84t85 -35v-84q-49 0 -91.5 21.5t-70.5 58.5q-35 45 -41 102q-1 11 -1 21v108q-6 44 -39.5 74t-78.5 30v84q45 0 78.5 29.5t39.5 73.5v108q0 34 11 65q6 19 16 36q27 47 74 75t103 28v-84q-50 0 -85 -35t-35 -85
v-113z" />
    <glyph glyph-name="verticalbar" unicode="|" horiz-adv-x="124" 
d="M104 0h-84v695h84v-695z" />
    <glyph glyph-name="braceright" unicode="}" horiz-adv-x="362" 
d="M140 211q8 87 78 141q-70 53 -78 140v113q0 50 -35.5 85t-84.5 35v84q48 0 90.5 -21.5t70.5 -58.5q35 -46 41 -102q1 -11 1 -22v-108q6 -44 39.5 -73.5t79.5 -29.5v-84q-46 0 -79.5 -30t-39.5 -74v-108q0 -33 -10 -65q-7 -18 -16 -35q-27 -47 -74 -75t-103 -28v84
q49 0 84.5 35t35.5 84v113z" />
    <glyph glyph-name="asciitilde" unicode="~" horiz-adv-x="388" 
d="M256 373q54 -3 112 44v-84q-58 -47 -112 -43q-26 1 -62 21.5t-62 21.5q-54 4 -112 -43v83q58 48 112 44q26 -2 62 -22t62 -22z" />
    <glyph glyph-name="nonbreakingspace" unicode="&#xa0;" horiz-adv-x="270" 
 />
    <glyph glyph-name="exclamdown" unicode="&#xa1;" horiz-adv-x="124" 
d="M20 0l15 552h54l15 -552h-84zM62 612q-17 0 -29.5 12t-12.5 29.5t12.5 29.5t29.5 12t29.5 -12t12.5 -29.5t-12.5 -29.5t-29.5 -12z" />
    <glyph glyph-name="cent" unicode="&#xa2;" horiz-adv-x="473" 
d="M375 115l29 24l49 -57l-29 -25q-57 -48 -131 -56v-104h-84v109q-82 19 -135.5 86t-53.5 153q0 101 72 173q50 50 117 66v108h84v-103q74 -9 131 -57l29 -24l-49 -58l-29 25q-36 30 -82 38v-336q46 7 82 38zM209 84v321q-50 -17 -82 -61t-32 -99t32 -99t82 -62z" />
    <glyph glyph-name="sterling" unicode="&#xa3;" horiz-adv-x="472" 
d="M320 93q63 -18 132 -19v-83q-81 2 -155 22q-17 5 -41 13q-33 11 -50 12q-58 3 -122 -47l-56 61q109 110 106 210v1h-114l13 82h80q-5 13 -19 40q-11 19 -16 30t-12.5 31t-10 35t-1.5 35.5t7 40.5q15 50 58 91t101 47q59 7 114.5 -26t86.5 -94l-75 -37q-19 38 -51 58.5
t-65 16.5q-31 -3 -55.5 -27t-33.5 -53q-8 -24 -1 -47t28 -63q25 -48 35 -78h137l-13 -82h-109q2 -71 -35 -143q13 1 27 1q29 -2 73 -17z" />
    <glyph glyph-name="currency" unicode="&#xa4;" horiz-adv-x="591" 
d="M530 348.5q0 -73.5 -42 -133.5l83 -83l-59 -59l-83 83q-60 -42 -133.5 -42t-133.5 42l-83 -83l-59 59l83 83q-42 60 -42 133.5t42 133.5l-83 83l59 59l83 -83q60 42 133.5 42t133.5 -42l83 83l59 -59l-83 -83q42 -60 42 -133.5zM369 216q38 21 59 59q19 34 19 73t-19 74
q-21 38 -59 59q-34 19 -73.5 19t-73.5 -19q-38 -21 -59 -60q-19 -33 -19 -72.5t19 -73.5q21 -38 59 -59q34 -19 73.5 -19t73.5 19z" />
    <glyph glyph-name="yen" unicode="&#xa5;" 
d="M255 320v-83h146l-13 -84h-133v-153h-84v153h-141l13 84h128v83h-143l14 84h105l-127 292h84l109 -252l109 252h84l-127 -292h121l-13 -84h-132z" />
    <glyph glyph-name="copyright" unicode="&#xa9;" horiz-adv-x="755" 
d="M460 250l32 28l56 -65l-33 -28q-60 -51 -138 -51q-88 0 -151 63t-63 151t63 151t151 63q78 0 138 -50l33 -28l-56 -65l-32 27q-36 31 -83 31q-53 0 -90.5 -38t-37.5 -91t37.5 -90.5t90.5 -37.5q47 0 83 30zM735 348q0 -97 -48 -179t-130.5 -130t-179.5 -48t-179 48
t-130 130t-48 179t48 179.5t130 130.5t179 48t179.5 -48t130.5 -130.5t48 -179.5zM651 348q0 113 -80.5 193.5t-193.5 80.5t-193 -80.5t-80 -193.5t80 -193t193 -80t193.5 80t80.5 193z" />
    <glyph glyph-name="guillemotleft" unicode="&#xab;" horiz-adv-x="337" 
d="M178 521l-74 -172l74 -171h-84l-74 171l74 172h84zM317 521l-74 -172l74 -171h-84l-74 171l74 172h84z" />
    <glyph glyph-name="logicalnot" unicode="&#xac;" horiz-adv-x="562" 
d="M20 449h522v-192h-84v109h-438v83z" />
    <glyph glyph-name="softhyphen" unicode="&#xad;" horiz-adv-x="0" 
 />
    <glyph glyph-name="registered" unicode="&#xae;" horiz-adv-x="510" 
d="M255 703q97 0 166 -69t69 -166t-69 -166t-166 -69t-166 69t-69 166t69 166t166 69zM254.5 317q62.5 0 107 44t44.5 106.5t-44.5 107t-107 44.5t-106.5 -44.5t-44 -107t44 -106.5t106.5 -44zM308 447l36 -87h-68l-27 63l-2 -1v-62h-65v215h77q32 -3 54 -25t21 -51
q0 -30 -26 -52zM247 514v-28l10 3q13 4 13 12q0 4 -5 8t-12 5h-6z" />
    <glyph glyph-name="degree" unicode="&#xb0;" horiz-adv-x="338" 
d="M168.5 704q61.5 0 105 -43.5t43.5 -104.5q0 -47 -26.5 -85t-69.5 -54q-25 -10 -52.5 -10t-52.5 10q-43 16 -69.5 54t-26.5 85q0 61 43.5 104.5t105 43.5zM168.5 491q26.5 0 45.5 19t19 45.5t-19 45.5t-45.5 19t-45.5 -19t-19 -45.5t19 -45.5t45.5 -19z" />
    <glyph glyph-name="plusminus" unicode="&#xb1;" horiz-adv-x="388" 
d="M20 186h348v-84h-348v84zM236 434h132v-84h-132v-132h-84v132h-132v84h132v132h84v-132z" />
    <glyph glyph-name="periodcentered" unicode="&#xb7;" horiz-adv-x="124" 
d="M62 396q17 0 29.5 -12.5t12.5 -29.5t-12.5 -29.5t-29.5 -12.5t-29.5 12.5t-12.5 29.5t12.5 29.5t29.5 12.5z" />
    <glyph glyph-name="guillemotright" unicode="&#xbb;" horiz-adv-x="337" 
d="M159 178l74 171l-74 171h84l74 -171l-74 -171h-84zM20 178l74 171l-74 172h84l74 -172l-74 -171h-84z" />
    <glyph glyph-name="questiondown" unicode="&#xbf;" horiz-adv-x="384" 
d="M192 0q-71 0 -121.5 51t-50.5 122q0 10 1 19q2 20 9 39q11 31 48 75q18 22 29.5 33t17.5 18q33 39 40 105l3 91h55l2 -93q1 -71 -24 -117q-16 -29 -52 -72q-17 -20 -31 -47l-6 -13l-2 -6q-6 -17 -6 -32q0 -37 25.5 -63t62 -26t62.5 26t26 63q0 7 -2 15l82 18q3 -17 3 -33
q0 -71 -50 -122t-121 -51zM195.5 612q-17.5 0 -29.5 12.5t-12 30t12 29.5t29.5 12t29.5 -12t12 -29.5t-12 -30t-29.5 -12.5z" />
    <glyph glyph-name="multiply" unicode="&#xd7;" horiz-adv-x="345" 
d="M173 404l93 93l59 -59l-93 -93l93 -94l-59 -59l-93 93l-94 -93l-59 59l93 94l-93 93l59 59z" />
    <glyph glyph-name="divide" unicode="&#xf7;" horiz-adv-x="388" 
d="M20 385h348v-84h-348v84zM193.5 518q17.5 0 30 -12.5t12.5 -30t-12.5 -29.5t-30 -12t-29.5 12t-12 29.5t12 30t29.5 12.5zM193.5 253q17.5 0 30 -12.5t12.5 -29.5t-12.5 -29.5t-30 -12.5t-29.5 12.5t-12 29.5t12 29.5t29.5 12.5z" />
    <glyph glyph-name="Iocyrillic" unicode="&#x401;" horiz-adv-x="425" 
d="M387 84l18 -84h-385v695h385l-18 -83h-283v-149h191l-19 -84h-172v-295h283zM129 813q17 0 29.5 -12t12.5 -29.5t-12.5 -29.5t-29.5 -12t-29.5 12t-12.5 29.5t12.5 29.5t29.5 12zM296.5 813q17.5 0 29.5 -12t12 -29.5t-12 -29.5t-29.5 -12t-30 12t-12.5 29.5t12.5 29.5
t30 12z" />
    <glyph glyph-name="Acyrillic" unicode="&#x410;" 
d="M255 695l150 -695h-84l-4 20l-1 5q-8 33 -32 59.5t-59 38.5l-89 26l-32 -149h-84l151 695h84zM251 202q15 -5 29 -12l-67 312l-59 -271z" />
    <glyph glyph-name="Becyrillic" unicode="&#x411;" 
d="M254 421q66 -23 108 -78.5t43 -122.5q2 -81 -56 -145t-143 -75h-2h-184v695h336l-18 -84h-234v-146zM198 83q53 8 88.5 47t34.5 89q0 40 -26 74t-68 48l-123 37v-295h94z" />
    <glyph glyph-name="Vecyrillic" unicode="&#x412;" 
d="M306 395q45 -30 71.5 -76.5t27.5 -98.5q2 -82 -56 -145.5t-143 -74.5h-2h-184v695h184h3q62 -10 105.5 -56t47.5 -107q5 -80 -54 -137zM104 611v-146l109 -32q30 11 47.5 37t15.5 56q-2 32 -24 55.5t-54 29.5h-94zM198 83q53 8 88.5 47t34.5 89q0 40 -26 74t-68 48l-16 5
l-107 32v-295h94z" />
    <glyph glyph-name="Gecyrillic" unicode="&#x413;" 
d="M20 696h385l-18 -84h-283v-612h-84v696z" />
    <glyph glyph-name="Decyrillic" unicode="&#x414;" horiz-adv-x="565" 
d="M461 84h83l-36 -168h-84l19 84h-339v-84h-84v168h74l132 610l1 1h234v-611zM177 84h200v528h-85z" />
    <glyph glyph-name="Iecyrillic" unicode="&#x415;" horiz-adv-x="425" 
d="M387 84l18 -84h-385v696h385l-18 -84h-283v-149h191l-19 -84h-172v-295h283z" />
    <glyph glyph-name="Zhecyrillic" unicode="&#x416;" horiz-adv-x="727" 
d="M707 696l-195 -248l195 -448h-84l-165 380l-53 -68v-312h-84v312l-53 68l-164 -380h-84l195 448l-195 248h106l195 -248v248h84v-248l195 248h107z" />
    <glyph glyph-name="Zecyrillic" unicode="&#x417;" horiz-adv-x="481" 
d="M444 302q21 -51 15.5 -108t-37.5 -104q-30 -44 -79.5 -70t-108.5 -29h-11q-98 0 -172 67l-31 29l56 61l31 -28q54 -48 123 -45q83 3 123 62q19 29 23 65t-9 67q-22 50 -79.5 74t-122.5 10l-18 83q54 23 100 60t48 72q1 22 -7 34q-14 20 -56 20q-41 0 -73 -35l-29 -30
l-61 57l29 31q57 60 134 60q85 0 124 -54q26 -36 23 -87q-4 -71 -82 -135q14 -4 28 -11q85 -37 119 -116z" />
    <glyph glyph-name="Iicyrillic" unicode="&#x418;" 
d="M322 696h84v-696h-84v503l-218 -503h-84v696h84v-502z" />
    <glyph glyph-name="Iishortcyrillic" unicode="&#x419;" 
d="M321 695h84v-695h-84v502l-217 -502h-84v695h84v-502zM186 813h124l-36 -83h-124z" />
    <glyph glyph-name="Kacyrillic" unicode="&#x41a;" 
d="M405 696l-194 -248l194 -448h-84l-164 380l-53 -68v-312h-84v696h84v-248l195 248h106z" />
    <glyph glyph-name="Elcyrillic" unicode="&#x41b;" 
d="M171 695h234v-695h-84v611h-84l-133 -611h-84l151 694v1z" />
    <glyph glyph-name="Emcyrillic" unicode="&#x41c;" horiz-adv-x="474" 
d="M370 695h84v-695h-84v502l-49 -112l-36 -84l-6 -14l-42 -97l-42 97l-6 14l-36 84l-49 112v-502h-84v695h84l132 -305l1 -2v2z" />
    <glyph glyph-name="Encyrillic" unicode="&#x41d;" 
d="M321 695h84v-695h-84v232h-217v-232h-84v695h84v-380h217v380z" />
    <glyph glyph-name="Ocyrillic" unicode="&#x41e;" horiz-adv-x="755" 
d="M734 348.5q0 -96.5 -47.5 -179t-130 -130.5t-179.5 -48t-179 48t-130 130.5t-48 179t48 179t130 130.5t179 48t179.5 -48t130 -130.5t47.5 -179zM651 349q0 113 -80.5 193t-193.5 80t-193 -80t-80 -193t80 -193.5t193 -80.5t193.5 80.5t80.5 193.5z" />
    <glyph glyph-name="Pecyrillic" unicode="&#x41f;" 
d="M20 695h385v-695h-84v611h-217v-611h-84v695z" />
    <glyph glyph-name="Ercyrillic" unicode="&#x420;" 
d="M206 695q85 -11 143 -75t56 -146q-1 -67 -43 -122t-108 -78l-150 -45v-229h-84v695h184h2zM227 353q42 15 68 48.5t26 74.5q1 49 -34.5 88.5t-88.5 46.5h-94v-294z" />
    <glyph glyph-name="Escyrillic" unicode="&#x421;" horiz-adv-x="660" 
d="M607 76q-100 -85 -230 -85q-97 0 -179 48t-130 130t-48 179q0 71 27 136t78 116t116 78t136 27q130 0 230 -85l32 -27l-54 -63l-32 27q-76 65 -176 65q-113 0 -193 -80.5t-80 -193.5t80 -193t193 -80q100 0 176 65l32 27l54 -64z" />
    <glyph glyph-name="Tecyrillic" unicode="&#x422;" 
d="M20 695h385l-18 -84h-133v-611h-83v611h-151v84z" />
    <glyph glyph-name="Ucyrillic" unicode="&#x423;" 
d="M322 695h84l-151 -348l-42 -96l-109 -251h-84l151 347l-151 348h84l109 -251z" />
    <glyph glyph-name="Efcyrillic" unicode="&#x424;" horiz-adv-x="718" 
d="M476 634q91 0 156 -65t65 -156.5t-65 -156t-156 -64.5q-39 0 -75 13v-205h-84v205q-37 -13 -76 -13q-91 0 -155.5 64.5t-64.5 156t64.5 156.5t155.5 65q39 0 76 -14v75h84v-75q36 14 75 14zM241 275q42 0 76 23v229q-34 23 -76 23q-56 0 -96.5 -40.5t-40.5 -97t40.5 -97
t96.5 -40.5zM476 275q57 0 97 40.5t40 97t-40 97t-97 40.5q-41 0 -75 -23v-229q34 -23 75 -23z" />
    <glyph glyph-name="Khacyrillic" unicode="&#x425;" 
d="M406 695l-151 -348l151 -347h-84l-109 251l-109 -251h-84l151 347l-151 348h84l109 -251l109 251h84z" />
    <glyph glyph-name="Tsecyrillic" unicode="&#x426;" horiz-adv-x="509" 
d="M405 83h84l-8 -36l-10 -47l-18 -84h-84l18 84h-367v695h84v-612h217v612h84v-612z" />
    <glyph glyph-name="Checyrillic" unicode="&#x427;" 
d="M321 696h84v-696h-84v230l-150 45q-66 23 -108 78t-43 122v0v221h84v-217v-1v-1q1 -41 27 -74.5t67 -48.5l123 -37v379z" />
    <glyph glyph-name="Shacyrillic" unicode="&#x428;" horiz-adv-x="727" 
d="M623 695h84v-695h-687v695h84v-611h217v611h84v-611h218v611z" />
    <glyph glyph-name="Shchacyrillic" unicode="&#x429;" horiz-adv-x="811" 
d="M707 84h83l-8 -37l-10 -47l-18 -84h-84l18 84h-668v695h84v-611h217v611h84v-611h218v611h84v-611z" />
    <glyph glyph-name="Hardsigncyrillic" unicode="&#x42a;" horiz-adv-x="539" 
d="M367 421q66 -23 108 -78t43 -122q2 -82 -55.5 -146t-143.5 -75h-2h-184v612h-95l-18 83h197v-229zM311 84q53 7 89 46.5t35 88.5q-1 40 -27 74t-68 49l-123 36v-294h94z" />
    <glyph glyph-name="Yericyrillic" unicode="&#x42b;" horiz-adv-x="551" 
d="M405 221q2 -82 -56 -145.5t-143 -74.5l-2 -1h-184v696h84v-230l150 -44q66 -24 108 -79t43 -122zM321 219q0 41 -26 75t-68 48l-123 37v-295h94q53 8 88.5 47t34.5 88zM531 696v-696h-84v696h84z" />
    <glyph glyph-name="Softsigncyrillic" unicode="&#x42c;" 
d="M405 220q2 -81 -56 -145t-143 -75h-2h-184v695h84v-230l150 -44q66 -23 108 -78.5t43 -122.5zM321 219q0 40 -26 74t-68 49l-123 36v-295h94q53 8 88.5 47t34.5 89z" />
    <glyph glyph-name="Ereversedcyrillic" unicode="&#x42d;" horiz-adv-x="660" 
d="M282 705q97 0 179.5 -47.5t130 -130t47.5 -179.5q0 -71 -27 -136t-78 -116t-116 -78t-136 -27q-130 0 -230 85l-32 27l54 64l32 -27q77 -65 176 -65q102 0 178.5 66t91.5 165h-250l-18 84h268q-15 99 -91.5 165.5t-178.5 66.5q-99 0 -176 -65l-32 -27l-54 63l32 27
q100 85 230 85z" />
    <glyph glyph-name="IUcyrillic" unicode="&#x42e;" horiz-adv-x="880" 
d="M503 705q97 0 179 -47.5t130 -130t48 -179.5t-48 -179t-130 -130t-179 -48q-137 0 -238 91t-117 224h-44v-306h-84v696h84v-306h44q16 134 117 224.5t238 90.5zM503 75q113 0 193 80t80 193t-80 193.5t-193 80.5q-102 0 -178.5 -66.5t-92.5 -165.5q-3 -21 -3 -42t3 -42
q16 -99 92.5 -165t178.5 -66z" />
    <glyph glyph-name="IAcyrillic" unicode="&#x42f;" 
d="M222 695h183v-695h-84v230l-118 35l-96 -265h-87l107 295q-49 29 -77.5 77t-29.5 102q-2 82 56 146t143 75h3zM321 317v294h-94q-53 -7 -88.5 -46t-34.5 -89q1 -40 27 -74t67 -49z" />
    <glyph glyph-name="acyrillic" unicode="&#x430;" 
d="M255 695l150 -695h-84l-4 20l-1 5q-8 33 -32 59.5t-59 38.5l-89 26l-32 -149h-84l151 695h84zM251 203q15 -6 29 -13l-67 313l-59 -272z" />
    <glyph glyph-name="becyrillic" unicode="&#x431;" 
d="M254 421q66 -23 108 -78t43 -122q2 -82 -56 -146t-143 -75h-2h-184v696h336l-18 -84h-234v-146zM198 84q53 7 88.5 46.5t34.5 88.5q0 41 -26 74.5t-68 48.5l-123 36v-294h94z" />
    <glyph glyph-name="vecyrillic" unicode="&#x432;" 
d="M306 395q45 -30 71.5 -76t27.5 -98q2 -82 -56 -146t-143 -75h-2h-184v695h184h3q62 -9 105.5 -55t47.5 -107q5 -80 -54 -138zM104 612v-146l109 -33q30 11 47.5 37t15.5 57t-24 55t-54 30h-94zM198 84q53 7 88.5 46.5t34.5 88.5q0 40 -26 74t-68 49l-16 5l-107 31v-294
h94z" />
    <glyph glyph-name="gecyrillic" unicode="&#x433;" 
d="M20 695h385l-18 -84h-283v-611h-84v695z" />
    <glyph glyph-name="decyrillic" unicode="&#x434;" horiz-adv-x="565" 
d="M461 83h83l-36 -167h-84l19 83h-339v-83h-84v167h74l132 611l1 1h234v-612zM177 83h200v528h-85z" />
    <glyph glyph-name="iecyrillic" unicode="&#x435;" horiz-adv-x="425" 
d="M387 83l18 -83h-385v695h385l-18 -84h-283v-149h191l-19 -83h-172v-296h283z" />
    <glyph glyph-name="zhecyrillic" unicode="&#x436;" horiz-adv-x="727" 
d="M707 695l-195 -247l195 -448h-84l-165 379l-53 -67v-312h-84v312l-53 67l-164 -379h-84l195 448l-195 247h106l195 -248v248h84v-248l195 248h107z" />
    <glyph glyph-name="zecyrillic" unicode="&#x437;" horiz-adv-x="481" 
d="M444 302q21 -51 15.5 -108t-37.5 -103q-30 -45 -79.5 -71t-108.5 -29h-11q-98 0 -172 68l-31 28l56 62l31 -28q54 -49 123 -46q83 4 123 62q19 29 23 65t-9 67q-22 51 -79.5 75t-122.5 10l-18 83q54 23 100 59.5t48 71.5q1 22 -7 34q-14 20 -56 20q-41 0 -73 -34l-29 -31
l-61 58l29 30q57 61 134 61q85 0 124 -55q26 -36 23 -87q-4 -71 -82 -135q14 -4 28 -10q85 -38 119 -117z" />
    <glyph glyph-name="iicyrillic" unicode="&#x438;" 
d="M321 695h84v-695h-84v502l-217 -502h-84v695h84v-502z" />
    <glyph glyph-name="iishortcyrillic" unicode="&#x439;" 
d="M321 696h84v-696h-84v503l-217 -503h-84v696h84v-503zM186 814h124l-36 -84h-124z" />
    <glyph glyph-name="kacyrillic" unicode="&#x43a;" 
d="M405 695l-194 -247l194 -448h-84l-164 379l-53 -67v-312h-84v695h84v-248l195 248h106z" />
    <glyph glyph-name="elcyrillic" unicode="&#x43b;" 
d="M171 695h234v-695h-84v612h-84l-133 -612h-84l151 694v1z" />
    <glyph glyph-name="emcyrillic" unicode="&#x43c;" horiz-adv-x="474" 
d="M370 696h84v-696h-84v503l-49 -113l-36 -84l-6 -14l-42 -97l-42 97l-6 14l-36 84l-49 113v-503h-84v696h84l132 -306l1 -1v1z" />
    <glyph glyph-name="encyrillic" unicode="&#x43d;" 
d="M321 695h84v-695h-84v232h-217v-232h-84v695h84v-379h217v379z" />
    <glyph glyph-name="ocyrillic" unicode="&#x43e;" horiz-adv-x="755" 
d="M734 348q0 -97 -47.5 -179t-130 -130t-179.5 -48t-179 48t-130 130t-48 179t48 179.5t130 130t179 47.5t179.5 -47.5t130 -130t47.5 -179.5zM651 348q0 113 -80.5 193.5t-193.5 80.5t-193 -80.5t-80 -193.5t80 -193t193 -80t193.5 80t80.5 193z" />
    <glyph glyph-name="pecyrillic" unicode="&#x43f;" 
d="M20 696h385v-696h-84v612h-217v-612h-84v696z" />
    <glyph glyph-name="ercyrillic" unicode="&#x440;" 
d="M206 695q85 -10 143 -74t56 -146q-1 -67 -43 -122t-108 -79l-150 -44v-230h-84v696h184zM227 354q42 15 68 48.5t26 74.5q1 49 -34.5 88t-88.5 47h-94v-295z" />
    <glyph glyph-name="escyrillic" unicode="&#x441;" horiz-adv-x="660" 
d="M607 76q-100 -85 -230 -85q-97 0 -179 48t-130 130.5t-48 178.5q0 72 27 137t78 115.5t116 78t136 27.5q130 0 230 -85l32 -27l-54 -64l-32 27q-76 65 -176 65q-113 0 -193 -80t-80 -193.5t80 -193.5t193 -80q100 0 176 65l32 27l54 -64z" />
    <glyph glyph-name="tecyrillic" unicode="&#x442;" 
d="M20 695h385l-18 -83h-133v-612h-83v612h-151v83z" />
    <glyph glyph-name="ucyrillic" unicode="&#x443;" 
d="M322 695h84l-151 -347l-42 -97l-109 -251h-84l151 348l-151 347h84l109 -251z" />
    <glyph glyph-name="efcyrillic" unicode="&#x444;" horiz-adv-x="717" 
d="M476 634q91 0 155.5 -65t64.5 -156t-64.5 -156t-155.5 -65q-39 0 -76 13v-205h-84v205q-36 -13 -75 -13q-91 0 -156 65t-65 156t65 156t156 65q39 0 75 -13v75h84v-75q37 13 76 13zM241 276q41 0 75 22v229q-34 23 -75 23q-57 0 -97 -40t-40 -97t40 -97t97 -40zM476 276
q56 0 96.5 40t40.5 97t-40.5 97t-96.5 40q-42 0 -76 -23v-229q34 -22 76 -22z" />
    <glyph glyph-name="khacyrillic" unicode="&#x445;" 
d="M406 695l-151 -347l151 -348h-84l-109 251l-109 -251h-84l151 348l-151 347h84l109 -251l109 251h84z" />
    <glyph glyph-name="tsecyrillic" unicode="&#x446;" horiz-adv-x="509" 
d="M405 84h84l-8 -37l-10 -47l-18 -84h-84l18 84h-367v695h84v-611h217v611h84v-611z" />
    <glyph glyph-name="checyrillic" unicode="&#x447;" 
d="M321 695h84v-695h-84v230l-150 44q-66 23 -108 78.5t-43 121.5v0v221h84v-217v-1v-1q1 -40 27 -74t67 -49l123 -36v378z" />
    <glyph glyph-name="shacyrillic" unicode="&#x448;" horiz-adv-x="727" 
d="M623 696h84v-696h-687v696h84v-612h217v612h84v-612h218v612z" />
    <glyph glyph-name="shchacyrillic" unicode="&#x449;" horiz-adv-x="811" 
d="M707 83h83l-8 -37l-10 -47l-18 -83h-84l18 83h-668v696h84v-612h217v612h84v-612h218v612h84v-612z" />
    <glyph glyph-name="hardsigncyrillic" unicode="&#x44a;" horiz-adv-x="539" 
d="M367 421q66 -23 108 -78t43 -122q2 -82 -55.5 -146t-143.5 -75h-2h-184v612h-95l-18 83h197v-229zM311 84q53 7 89 46.5t35 88.5q-1 40 -27 74t-68 49l-123 36v-294h94z" />
    <glyph glyph-name="yericyrillic" unicode="&#x44b;" horiz-adv-x="551" 
d="M405 220q2 -81 -56 -145t-143 -75h-2h-184v695h84v-230l150 -44q66 -23 108 -78.5t43 -122.5zM321 219q0 40 -26 74t-68 49l-123 36v-295h94q53 8 88.5 47t34.5 89zM531 695v-695h-84v695h84z" />
    <glyph glyph-name="softsigncyrillic" unicode="&#x44c;" 
d="M405 221q2 -82 -56 -146t-143 -75h-2h-184v695h84v-229l150 -45q66 -23 108 -78.5t43 -121.5zM321 219q0 40 -26 74t-68 49l-123 36v-294h94q53 7 88.5 46t34.5 89z" />
    <glyph glyph-name="ereversedcyrillic" unicode="&#x44d;" horiz-adv-x="660" 
d="M282 706q97 0 179.5 -48t130 -130.5t47.5 -179.5q0 -71 -27 -136t-78 -116t-116 -78t-136 -27q-130 0 -230 85l-32 27l54 64l32 -27q77 -65 176 -65q102 0 178.5 66.5t91.5 165.5h-250l-18 83h268q-15 99 -91.5 165.5t-178.5 66.5q-99 0 -176 -65l-32 -27l-54 64l32 27
q100 85 230 85z" />
    <glyph glyph-name="iucyrillic" unicode="&#x44e;" horiz-adv-x="880" 
d="M503 706q97 0 179 -48t130 -130.5t48 -179t-48 -179t-130 -130.5t-179 -48q-137 0 -238 91t-117 225h-44v-306h-84v695h84v-306h44q16 134 117 225t238 91zM503 75q113 0 193 80t80 193t-80 193.5t-193 80.5q-102 0 -178.5 -66.5t-92.5 -165.5q-3 -21 -3 -42t3 -41
q16 -99 92.5 -165.5t178.5 -66.5z" />
    <glyph glyph-name="iacyrillic" unicode="&#x44f;" 
d="M222 695h183v-695h-84v230l-118 35l-96 -265h-87l107 295q-49 30 -77.5 77.5t-29.5 102.5q-2 81 56 145t143 75h3zM321 317v295h-94q-53 -8 -88.5 -47t-34.5 -89q1 -40 27 -74t67 -49z" />
    <glyph glyph-name="iocyrillic" unicode="&#x451;" horiz-adv-x="425" 
d="M387 84l18 -84h-385v696h385l-18 -84h-283v-149h191l-19 -84h-172v-295h283zM129 814q17 0 29.5 -12.5t12.5 -30t-12.5 -29.5t-29.5 -12t-29.5 12t-12.5 29.5t12.5 30t29.5 12.5zM296.5 814q17.5 0 29.5 -12.5t12 -30t-12 -29.5t-29.5 -12t-30 12t-12.5 29.5t12.5 30
t30 12.5z" />
    <glyph glyph-name="endash" unicode="&#x2013;" horiz-adv-x="562" 
d="M542 300h-522v83h522v-83z" />
    <glyph glyph-name="emdash" unicode="&#x2014;" horiz-adv-x="735" 
d="M715 300h-695v84h695v-84z" />
    <glyph glyph-name="quoteleft" unicode="&#x2018;" horiz-adv-x="128" 
d="M23 651q-8 26 3.5 51t25.5 37q14 11 32 16l6 -19q-19 -11 -25 -31q0 -4 -1 -7h3q17 0 29 -12.5t12 -29.5t-12 -29.5t-29 -12.5q-20 0 -33 15q-8 11 -11 22z" />
    <glyph glyph-name="quoteright" unicode="&#x2019;" horiz-adv-x="129" 
d="M106 665q8 -26 -4 -51t-26 -37q-14 -11 -32 -16l-6 19q20 11 25 32q1 3 1 7q-1 -1 -2 -1q-17 0 -29.5 12.5t-12.5 30t12.5 29.5t29.5 12q20 0 32 -15q8 -10 12 -22z" />
    <glyph glyph-name="quotesinglbase" unicode="&#x201a;" horiz-adv-x="128" 
d="M106 48q8 -26 -4 -51t-26 -37q-14 -11 -32 -16l-6 19q20 11 25 32q1 3 1 7q-1 -1 -2 -1q-17 0 -29.5 12.5t-12.5 30t12.5 29.5t29.5 12q20 0 32 -15q8 -10 12 -22z" />
    <glyph glyph-name="quotedblleft" unicode="&#x201c;" horiz-adv-x="236" 
d="M130 651q-8 26 4 51t26 37q14 11 32 16l6 -19q-20 -11 -25 -31q-1 -4 -1 -7h2q17 0 29.5 -12.5t12.5 -29.5t-12.5 -29.5t-29.5 -12.5q-20 0 -32 15q-8 11 -12 22zM23 651q-8 26 3.5 51t25.5 37q14 11 32 16l6 -19q-19 -11 -25 -31q0 -4 -1 -7h3q17 0 29.5 -12.5
t12.5 -29.5t-12.5 -29.5t-29.5 -12.5q-20 0 -33 15q-8 11 -11 22z" />
    <glyph glyph-name="quotedblright" unicode="&#x201d;" horiz-adv-x="236" 
d="M106 665q8 -26 -4 -51t-26 -37q-14 -11 -32 -16l-6 19q20 11 25 32q1 3 1 7q-1 -1 -2 -1q-17 0 -29.5 12.5t-12.5 30t12.5 29.5t29.5 12q20 0 32 -15q8 -10 12 -22zM213 665q8 -26 -3.5 -51t-25.5 -37q-14 -11 -32 -16l-6 19q19 11 24 32q1 3 2 7q-1 -1 -3 -1
q-17 0 -29.5 12.5t-12.5 30t12.5 29.5t29.5 12q20 0 33 -15q7 -10 11 -22z" />
    <glyph glyph-name="quotedblbase" unicode="&#x201e;" horiz-adv-x="236" 
d="M106 48q8 -26 -4 -51t-26 -37q-14 -11 -32 -16l-6 19q20 11 25 32q1 3 1 7q-1 -1 -2 -1q-17 0 -29.5 12.5t-12.5 30t12.5 29.5t29.5 12q20 0 32 -15q8 -10 12 -22zM213 48q8 -26 -3.5 -51t-25.5 -37q-14 -11 -32 -16l-6 19q19 11 24 32q1 3 2 7q-1 -1 -3 -1
q-17 0 -29.5 12.5t-12.5 30t12.5 29.5t29.5 12q20 0 33 -15q7 -10 11 -22z" />
    <glyph glyph-name="bullet" unicode="&#x2022;" horiz-adv-x="207" 
d="M103.5 432q34.5 0 59 -24.5t24.5 -59t-24.5 -59t-59 -24.5t-59 24.5t-24.5 59t24.5 59t59 24.5z" />
    <glyph glyph-name="ellipsis" unicode="&#x2026;" horiz-adv-x="420" 
d="M62 84q17 0 29.5 -12.5t12.5 -29.5t-12.5 -29.5t-29.5 -12.5t-29.5 12.5t-12.5 29.5t12.5 29.5t29.5 12.5zM210 84q17 0 29.5 -12.5t12.5 -29.5t-12.5 -29.5t-29.5 -12.5t-29.5 12.5t-12.5 29.5t12.5 29.5t29.5 12.5zM358.5 84q17.5 0 29.5 -12.5t12 -29.5t-12 -29.5
t-29.5 -12.5t-30 12.5t-12.5 29.5t12.5 29.5t30 12.5z" />
    <glyph glyph-name="perthousand" unicode="&#x2030;" horiz-adv-x="982" 
d="M516 696h102l-489 -695h-102zM217 696q44 -15 72 -53.5t28 -87.5q0 -61 -43.5 -104.5t-105 -43.5t-105 43.5t-43.5 104.5q0 49 28 87.5t72 53.5q24 8 49 8t48 -8zM168.5 491q26.5 0 45.5 19t19 45.5t-19 45.5t-45.5 19t-45.5 -19t-19 -45.5t19 -45.5t45.5 -19zM476.5 288
q61.5 0 105 -43.5t43.5 -104.5q0 -47 -26.5 -85t-69.5 -54q-25 -10 -52.5 -10t-52.5 10q-42 16 -69 54t-27 85q0 61 43.5 104.5t105 43.5zM476.5 75q26.5 0 46 19t19.5 45.5t-19.5 45.5t-46 19t-45.5 -19t-19 -45.5t19 -45.5t45.5 -19zM813.5 288q61.5 0 105 -43.5
t43.5 -104.5q0 -47 -26.5 -85t-69.5 -54q-25 -10 -52.5 -10t-52.5 10q-42 16 -69 54t-27 85q0 61 43.5 104.5t105 43.5zM814 75q27 0 46 19t19 45.5t-19 45.5t-46 19t-46 -19t-19 -45.5t19 -45.5t46 -19z" />
    <glyph glyph-name="guilsinglleft" unicode="&#x2039;" horiz-adv-x="198" 
d="M178 520l-74 -171l74 -171h-84l-74 171l74 171h84z" />
    <glyph glyph-name="guilsinglright" unicode="&#x203a;" horiz-adv-x="198" 
d="M20 178l74 171l-74 171h84l74 -171l-74 -171h-84z" />
    <glyph glyph-name="Euro" unicode="&#x20ac;" horiz-adv-x="729" 
d="M623 140l32 27l54 -64l-31 -27q-101 -85 -231 -85q-117 0 -210 68.5t-129 176.5h-88l12 84h59q-1 14 -1 28.5t1 28.5h-50l12 83h55q27 80 87 140q51 51 116 78t136 27q130 0 231 -84l31 -28l-54 -63l-32 27q-76 65 -176 65q-82 0 -149 -44.5t-100 -117.5h319l-12 -83
h-330q-1 -15 -1 -29t1 -28h321l-12 -84h-286q24 -53 67 -91.5t99 -56.5q40 -13 83 -13q100 0 176 65z" />
    <glyph glyph-name="uni20b4" unicode="&#x20b4;" horiz-adv-x="522" 
d="M441 172l61 -16q-21 -72 -81 -118.5t-137 -46.5q-94 0 -160.5 66.5t-66.5 159.5q0 2 1 6h-38l13 83h43q21 50 62 84h-91l13 84h291q22 25 22 59q0 36 -26 62.5t-63 26.5q-30 0 -53.5 -17.5t-31.5 -45.5l-82 21q16 55 62 90.5t105 35.5q71 0 122 -51t51 -122
q0 -31 -11 -59h43l-13 -84h-94q-45 -30 -98 -30q-68 0 -111 -54h290l-14 -83h-308v-6q0 -59 42 -100.5t101 -41.5q48 0 85.5 28.5t50.5 73.5z" />
    <glyph glyph-name="numero" unicode="&#x2116;" horiz-adv-x="763" 
d="M594.5 695q61.5 0 105 -43.5t43.5 -104.5q0 -47 -27 -85t-69 -54q-25 -10 -52.5 -10t-52.5 10q-43 16 -69.5 54t-26.5 85q0 61 43.5 104.5t105 43.5zM594 482q27 0 46 19t19 46t-19 46t-46 19t-46 -19t-19 -46t19 -46t46 -19zM446 348h297l-18 -84h-279v84zM321 695h84
v-695h-84l-217 502v-502h-84v695h84l217 -502v502z" />
    <glyph glyph-name="minus" unicode="&#x2212;" horiz-adv-x="388" 
d="M368 300h-348v84h348v-84z" />
    <glyph glyph-name="infinity" unicode="&#x221e;" horiz-adv-x="724" 
d="M536 171h-10q-47 0 -86 23t-80 64q-46 -41 -85.5 -64t-83.5 -23q-61 0 -116 44t-55 101q0 56 52.5 99t115.5 47q50 3 91.5 -20.5t84.5 -66.5q45 41 85 63.5t83 23.5h1q61 -1 116 -44.5t55 -101.5q0 -55 -53 -98t-115 -47zM533 378q-41 0 -111 -63q30 -31 55.5 -46.5
t53.5 -13.5q32 2 60.5 22.5t28.5 38.5q0 19 -29 40.5t-58 21.5zM193 378q-32 -2 -60.5 -22.5t-28.5 -39.5q0 -18 28.5 -39.5t58.5 -21.5q40 0 111 63q-30 31 -56 46.5t-53 13.5z" />
    <glyph glyph-name="approxequal" unicode="&#x2248;" horiz-adv-x="388" 
d="M256 442q54 -4 112 43v-83q-58 -48 -112 -44q-26 2 -62 22t-62 22q-54 3 -112 -44v84q58 47 112 43q26 -2 62 -22t62 -21zM256 272q54 -4 112 44v-84q-58 -48 -112 -44q-26 2 -62 22t-62 22q-54 4 -112 -44v84q58 48 112 44q26 -2 62 -22t62 -22z" />
    <glyph glyph-name="notequal" unicode="&#x2260;" horiz-adv-x="388" 
d="M368 385h-123l-18 -84h141v-83h-160l-23 -107h-84l23 107h-104v83h123l18 84h-141v84h159l24 106h84l-24 -106h105v-84z" />
    <glyph glyph-name="lessequal" unicode="&#x2264;" horiz-adv-x="388" 
d="M20 457l348 102v-88l-200 -58l200 -59v-87l-348 102v88zM20 233h348v-84h-348v84z" />
    <glyph glyph-name="greaterequal" unicode="&#x2265;" horiz-adv-x="388" 
d="M20 559l348 -102v-88l-348 -102v87l200 59l-200 58v88zM20 233h348v-84h-348v84z" />
    </font>
</defs>
</svg>
