<svg xmlns="http://www.w3.org/2000/svg" viewBox="0 0 498 498"><style>.st3{fill:#00e68c}.st6{fill:#fff}</style><circle cx="249.13" cy="248.96" r="249" fill="#a25fff"/><path d="M362.5 351.4l-86.59-146.31v-81.14c0-2.47-2-4.46-4.46-4.46s-4.46 2-4.46 4.46h-35.72c0-2.47-2-4.46-4.46-4.46-2.47 0-4.46 2-4.46 4.46v81.14l-86.6 146.31c-4.97 8.39-5.04 18.45-.22 26.91 4.83 8.47 13.52 13.52 23.27 13.52h180.65c9.74 0 18.44-5.05 23.27-13.52 4.83-8.47 4.75-18.53-.22-26.91z" fill="#b3f4ff"/><path d="M249.13 123.94h-17.86c0-2.47-2-4.46-4.46-4.46-2.47 0-4.46 2-4.46 4.46v81.14l-86.6 146.32c-4.97 8.39-5.04 18.45-.22 26.91 4.83 8.47 13.52 13.52 23.27 13.52h90.32V123.94z" fill="#53dcff"/><path class="st3" d="M347.14 360.49l-25.08-42.37a4.449 4.449 0 0 0-3.84-2.19H180.04c-1.58 0-3.04.83-3.84 2.19l-25.07 42.37c-1.68 2.83-1.71 6.1-.07 8.98 1.64 2.86 4.46 4.5 7.76 4.5h180.65c3.29 0 6.12-1.64 7.76-4.51 1.61-2.86 1.58-6.13-.09-8.97z"/><path d="M249.13 315.93h-69.09c-1.58 0-3.04.83-3.84 2.19l-25.07 42.37c-1.68 2.83-1.71 6.1-.07 8.98 1.64 2.86 4.46 4.5 7.76 4.5h90.32v-58.04z" fill="#00bebe"/><path d="M262.52 253.42h-26.79c-2.47 0-4.46-2-4.46-4.46s2-4.46 4.46-4.46h26.79c2.47 0 4.46 2 4.46 4.46s-1.99 4.46-4.46 4.46zm0 22.32h-26.79c-2.47 0-4.46-2-4.46-4.46s2-4.46 4.46-4.46h26.79c2.47 0 4.46 2 4.46 4.46s-1.99 4.46-4.46 4.46zm0 22.33h-26.79c-2.47 0-4.46-2-4.46-4.46s2-4.46 4.46-4.46h26.79c2.47 0 4.46 2 4.46 4.46s-1.99 4.46-4.46 4.46z" fill="#5c546a"/><circle class="st6" cx="266.98" cy="347.18" r="8.93"/><circle class="st3" cx="217.87" cy="333.79" r="8.93"/><circle class="st6" cx="298.24" cy="338.25" r="4.46"/><circle class="st3" cx="231.27" cy="351.64" r="4.46"/><circle class="st3" cx="191.08" cy="342.71" r="4.46"/><path d="M275.91 106.09h-53.58c-4.93 0-8.93 4-8.93 8.93s4 8.93 8.93 8.93h53.58c4.93 0 8.93-4 8.93-8.93a8.92 8.92 0 0 0-8.93-8.93z" fill="#44bef1"/><path d="M352.26 217.46l-53.99 53.99-53.99-53.99L205 256.74l53.99 53.99L205 364.72 244.28 404l53.99-53.99L352.26 404l39.28-39.28-53.99-53.99 53.99-53.99-39.28-39.28z" fill="#e21b1b"/></svg>