<svg xmlns="http://www.w3.org/2000/svg" viewBox="0 0 498 498"><style>.st2{fill:#f3705a}</style><circle cx="249.02" cy="248.78" r="249" fill="#a25fff"/><path d="M319.86 146.99h32.74v57.15h-32.74v-57.15z" fill="#f05540"/><path class="st2" d="M307.36 117.82h57.74v30.96h-57.74v-30.96z"/><path d="M131.15 260.09v131.56h233.36V260.09L247.83 143.42c-45.24 45.83-70.84 71.43-116.68 116.67z" fill="#ffd15c"/><path d="M365.1 260.09L248.42 143.42c-23.22 22.62-41.08 40.48-58.93 58.34l-58.34 58.34v26.79L247.83 170.2l116.68 116.68v3.57-30.36h.59z" fill="#f7b64c"/><path d="M226.99 391.65h-70.24V322.6c0-19.64 16.07-35.12 35.12-35.12 19.64 0 35.12 16.07 35.12 35.12v69.05z" fill="#415a6b"/><path d="M247.83 287.48h91.68v80.36h-91.68v-80.36z" fill="#344a5e"/><path d="M257.35 297h31.55v61.32h-31.55V297zm41.08 0h31.55v61.32h-31.55V297z" fill="#8ad7f8"/><path class="st2" d="M386.53 235.69L262.12 111.27c-7.14-7.14-19.64-7.14-26.79 0L111.51 235.69c-7.14 7.14-7.14 19.64 0 26.79 7.14 7.14 19.64 7.14 26.79 0l110.72-110.72 110.72 110.72c7.14 7.14 19.64 7.14 26.79 0 7.15-7.74 7.15-19.65 0-26.79z"/></svg>