<svg xmlns="http://www.w3.org/2000/svg" viewBox="0 0 498 498"><style>.st1{fill:#fa983c}.st2{fill:#ddeeef}.st3{fill:#dc3531}.st4{fill:#fb6255}</style><circle cx="249" cy="249" r="249" fill="#a25fff"/><path class="st1" d="M167.06 289.07H249V371h-81.94v-81.93z"/><path class="st2" d="M218.54 316.38l-10.51-8.4-10.5 8.4v-27.31h21.01v27.31z"/><path class="st1" d="M249 289.07h81.94V371H249v-81.93z"/><path class="st2" d="M300.47 316.38l-10.51-8.4-10.5 8.4v-27.31h21.01v27.31z"/><path class="st1" d="M208.03 207.13h81.94v81.94h-81.94v-81.94z"/><path class="st2" d="M259.51 234.44l-10.51-8.4-10.5 8.4v-27.31h21.01v27.31z"/><path class="st3" d="M414.45 181.92H83.55l168.6-86.66 162.3 86.66z"/><path class="st4" d="M107.19 181.92h25.21V371h-25.21V181.92zm258.41 0h25.21V371H365.6V181.92z"/><path d="M272.27 207.13h17.69v81.94h-17.69v-81.94zm40.97 81.94h17.69V371h-17.69v-81.93zm-81.9 0h17.69V371h-17.69v-81.93z" fill="#ed862f"/><path class="st3" d="M378.21 181.92h12.61V371h-12.61V181.92zm-258.42 0h12.61V371h-12.61V181.92z"/><path d="M414.45 376.52H83.55c-3.05 0-5.51-2.47-5.51-5.51s2.47-5.51 5.51-5.51h330.89c3.05 0 5.51 2.47 5.51 5.51s-2.46 5.51-5.5 5.51z" fill="#525959"/><path class="st4" d="M83.55 181.92h307.26l-150.7-80.47-156.56 80.47z"/></svg>