<svg id="Слой_1" xmlns="http://www.w3.org/2000/svg" viewBox="0 0 498 498"><style>.st1{fill:#54254d}.st2{fill:#6e3089}.st3{fill:#9340b6}</style><circle cx="250.17" cy="249.44" r="249" fill="#a25fff"/><path class="st1" d="M396.05 210c-9.4-28.94-36.15-48.38-66.55-48.38-3.45 0-6.89.26-10.29.77-2.4-14.44-9.26-27.74-19.88-38.21-13.18-13.01-30.64-20.17-49.16-20.17l-52.5 145.43 52.5 125.38c12.98 12.7 30.68 20.05 49.07 20.05 14.84 0 29.05-4.62 41.09-13.37 14.98-10.89 24.9-26.94 27.91-45.21 2.43-14.71.17-29.5-6.38-42.59 12.99-6.75 23.51-17.38 30.19-30.71 8.3-16.56 9.72-35.38 4-52.99z"/><path class="st2" d="M201.01 124.18c-10.61 10.47-17.48 23.77-19.88 38.21-3.41-.51-6.85-.77-10.29-.77-30.41 0-57.15 19.44-66.55 48.38-5.72 17.61-4.3 36.43 3.99 52.98 6.68 13.33 17.2 23.96 30.19 30.71-6.55 13.09-8.81 27.88-6.38 42.59 3.02 18.27 12.93 34.33 27.91 45.21 12.04 8.75 26.25 13.37 41.09 13.37 18.4 0 36.09-7.35 49.07-20.05v-270.8c-18.51 0-35.97 7.16-49.15 20.17z"/><path class="st3" d="M379.41 215.4c-7.05-21.7-27.11-36.29-49.91-36.29-5.26 0-10.49.8-15.51 2.35l-11.17 3.45-.17-11.69c-.41-28.53-23.95-51.73-52.49-51.73l-17.5 127.93 17.5 97.54 7 9.36c10 13.37 25.34 21.03 42.07 21.03 11.12 0 21.77-3.47 30.8-10.03 23.09-16.77 28.49-49.39 12.05-72.7l-6.74-9.55 11.06-3.77c27.03-9.19 41.82-38.76 33.01-65.9z"/><path d="M197.68 173.24l-.17 11.69-11.17-3.45a52.266 52.266 0 0 0-15.51-2.35c-22.8 0-42.86 14.58-49.91 36.29-8.82 27.14 5.98 56.7 32.98 65.9l11.06 3.77-6.74 9.55c-16.44 23.32-11.03 55.93 12.05 72.71 9.03 6.56 19.68 10.03 30.8 10.03 16.73 0 32.07-7.67 42.07-21.03l7-9.36V121.51c-28.51 0-52.05 23.2-52.46 51.73z" fill="#a757b5"/><path class="st2" d="M362.77 220.81c-5.96-18.35-25.75-28.43-44.1-22.47a35.68 35.68 0 0 0-6.77 3.02l-36.33 21.07 8.81-41.06c.52-2.42.78-4.89.79-7.37 0-19.3-15.7-35-35-35l-17.5 110.43 17.5 51.18 17.01 38.4c1 2.27 2.24 4.42 3.7 6.43 11.34 15.61 33.27 19.09 48.88 7.74 15.61-11.34 19.09-33.27 7.74-48.88-1.46-2-3.12-3.85-4.97-5.5l-31.27-28.04 41.78-4.31c2.47-.25 4.9-.77 7.25-1.53 18.36-5.97 28.44-25.75 22.48-44.11z"/><path class="st3" d="M215.17 174c0 2.47.26 4.95.79 7.37l8.81 41.06-36.33-21.07a35.44 35.44 0 0 0-6.77-3.03c-18.35-5.96-38.14 4.12-44.1 22.47-5.96 18.35 4.12 38.14 22.47 44.1 2.36.76 4.79 1.28 7.25 1.53l41.78 4.31-31.26 28.04c-1.85 1.65-3.51 3.5-4.97 5.5-11.34 15.61-7.87 37.54 7.74 48.88 15.61 11.34 37.54 7.87 48.88-7.74 1.46-2.01 2.69-4.16 3.7-6.42l17.01-38.4V139c-19.3 0-35 15.7-35 35z"/><path class="st1" d="M250.17 222.4l-11.67 35 11.67 35c19.33 0 35-15.67 35-35s-15.67-35-35-35z"/><path class="st2" d="M215.17 257.4c0 19.33 15.67 35 35 35v-70c-19.33 0-35 15.67-35 35z"/></svg>