<svg xmlns="http://www.w3.org/2000/svg" width="44" height="44"><defs><filter id="a" x=".469" y=".781" width="42.781" height="42.75" filterUnits="userSpaceOnUse"><feFlood result="flood" flood-color="#555"/><feComposite result="composite" operator="in" in2="SourceGraphic"/><feBlend result="blend" in2="SourceGraphic"/></filter></defs><path d="M42.8 15.687a1.425 1.425 0 0 0-2.019 0L28.352 28.119l-17.481 7.7-2.694-2.695 7.7-17.479L28.31 3.211a1.428 1.428 0 1 0-2.019-2.019L13.479 14l-13 29.518 29.514-13L42.8 17.705a1.426 1.426 0 0 0 0-2.018zm-18.11 9.874a1.43 1.43 0 0 0 2.02 0L38.681 13.59a1.428 1.428 0 1 0-2.02-2.02L24.69 23.541a1.431 1.431 0 0 0 0 2.02zm-3.125-3.125a1.432 1.432 0 0 0 2.02 0l11.972-11.972a1.429 1.429 0 1 0-2.02-2.02L21.565 20.415a1.429 1.429 0 0 0 0 2.021zm-3.126-3.128a1.429 1.429 0 0 0 2.02 0L32.431 7.339a1.429 1.429 0 1 0-2.02-2.02l-11.972 11.97a1.429 1.429 0 0 0 0 2.019z" fill-rule="evenodd" filter="url(#a)"/></svg>