<svg xmlns="http://www.w3.org/2000/svg" width="64" height="44"><defs><filter id="a" x=".906" y=".406" width="62.656" height="43.563" filterUnits="userSpaceOnUse"><feFlood result="flood" flood-color="#555"/><feComposite result="composite" operator="in" in2="SourceGraphic"/><feBlend result="blend" in2="SourceGraphic"/></filter></defs><path d="M11.077 16.189a8.374 8.374 0 0 1 7.067-4.41H50.4V9.757a3.04 3.04 0 0 0-3.025-3.034H34.061V4.959a4.547 4.547 0 0 0-4.534-4.55h-7.742a4.558 4.558 0 0 0-4.539 4.55v1.766H3.933A3.035 3.035 0 0 0 .909 9.757v27.09zm9.193-11.23a1.522 1.522 0 0 1 .446-1.069 1.48 1.48 0 0 1 1.066-.449h7.742a1.514 1.514 0 0 1 1.512 1.518v1.766H20.27V4.959zM51.6 41.266a5.331 5.331 0 0 1-4.36 2.714H3.791a1.734 1.734 0 0 1-1.685-2.714l11.683-23.739a5.32 5.32 0 0 1 4.355-2.72h43.443a1.738 1.738 0 0 1 1.688 2.72z" fill-rule="evenodd" filter="url(#a)"/></svg>