<svg width="40" height="40" fill="none" xmlns="http://www.w3.org/2000/svg"><path d="M19.997.416C8.955.416 0 9.406 0 20.496c0 8.87 5.73 16.395 13.68 19.053 1 .185 1.365-.435 1.365-.968 0-.477-.018-1.74-.027-3.415-5.563 1.213-6.738-2.692-6.738-2.692-.907-2.32-2.22-2.938-2.22-2.938-1.817-1.245.135-1.22.135-1.22 2.008.143 3.063 2.07 3.063 2.07 1.785 3.068 4.682 2.183 5.822 1.668.18-1.298.697-2.183 1.27-2.685-4.44-.508-9.11-2.23-9.11-9.923 0-2.192.78-3.985 2.06-5.39-.208-.507-.893-2.55.195-5.312 0 0 1.68-.54 5.5 2.057a19.082 19.082 0 015.008-.675c1.697.01 3.41.23 5.007.678 3.817-2.598 5.495-2.058 5.495-2.058 1.09 2.765.405 4.805.2 5.313 1.283 1.405 2.055 3.197 2.055 5.39 0 7.712-4.675 9.41-9.13 9.907.718.62 1.358 1.845 1.358 3.718 0 2.685-.026 4.85-.026 5.507 0 .538.36 1.163 1.375.965A20.08 20.08 0 0040 20.496C40 9.406 31.045.416 19.997.416z" fill="#DFE6E9"/></svg>