<svg width="40" height="40" fill="none" xmlns="http://www.w3.org/2000/svg"><g clip-path="url(#clip0)"><path d="M19.572 31.315h2.39s.723-.08 1.09-.477c.34-.365.328-1.05.328-1.05s-.048-3.208 1.442-3.68c1.468-.466 3.353 3.1 5.35 4.472 1.51 1.038 2.658.81 2.658.81l5.343-.075s2.795-.172 1.47-2.37c-.107-.18-.772-1.625-3.972-4.595-3.35-3.11-2.9-2.605 1.135-7.983 2.457-3.276 3.44-5.276 3.132-6.13-.292-.816-2.1-.6-2.1-.6l-6.01.034s-.445-.06-.778.138c-.322.195-.53.645-.53.645s-.952 2.535-2.223 4.69c-2.677 4.548-3.75 4.788-4.187 4.505-1.018-.657-.763-2.645-.763-4.055 0-4.408.668-6.245-1.302-6.72-.655-.158-1.136-.263-2.808-.28-2.145-.023-3.963.007-4.99.51-.686.335-1.213 1.082-.89 1.125.397.052 1.297.242 1.775.892.617.838.595 2.723.595 2.723s.355 5.188-.828 5.833c-.813.442-1.925-.46-4.313-4.588-1.222-2.113-2.147-4.45-2.147-4.45s-.178-.435-.495-.668c-.386-.282-.926-.372-.926-.372l-5.715.035s-.858.025-1.173.397c-.28.333-.022 1.018-.022 1.018s4.475 10.468 9.54 15.746c4.649 4.838 9.924 4.52 9.924 4.52z" fill="#DFE6E9"/></g><defs><clipPath id="clip0"><path fill="#fff" d="M0 0h40v40H0z"/></clipPath></defs></svg>