<svg xmlns="http://www.w3.org/2000/svg" width="40" height="40"><path data-name="Forma 1 copy" d="M19.3 18.2a7.183 7.183 0 0 0-4.766 12.562v7.67a1.563 1.563 0 0 0 2.173 1.438l2.514-1.067 2.515 1.068a1.561 1.561 0 0 0 2.173-1.437V30.9A7.184 7.184 0 0 0 19.3 18.2zm1.484 17.871l-.951-.4a1.557 1.557 0 0 0-1.222 0l-.952.4v-3.687a7.2 7.2 0 0 0 3.125.036v3.651zM19.3 29.449a4.063 4.063 0 1 1 4.062-4.062 4.067 4.067 0 0 1-4.062 4.065zm19.14-5.693h-5.468V5.021A5.026 5.026 0 0 0 27.948 0h-21.7a6.257 6.257 0 0 0-6.25 6.25v3.194a1.563 1.563 0 0 0 1.563 1.563L5 11v18c0 2.537 1.981 4.63 4.323 5.6a1.563 1.563 0 1 0 1.2-2.886C9.35 31.229 8 30.268 8 29V11l16.375.006a1.563 1.563 0 0 0 1.563-1.563V5.02a1.9 1.9 0 0 1 1.895-1.9h.115a1.9 1.9 0 0 1 1.9 1.9v25.036a5.01 5.01 0 0 0 .372 1.9h-1.622a1.562 1.562 0 1 0 0 3.124h6.427A5.025 5.025 0 0 0 40 30.057V25.32a1.562 1.562 0 0 0-1.563-1.561zM22.815 5.018L23 8H3l.125-1.75A3.036 3.036 0 0 1 6 3h17a5.639 5.639 0 0 0-.188 2.021zm14.063 25.036a1.9 1.9 0 0 1-1.895 1.9h-.116a1.9 1.9 0 0 1-1.895-1.9V26.88h3.906v3.174z" fill="#fec009" fill-rule="evenodd"/></svg>