<svg xmlns="http://www.w3.org/2000/svg" width="40" height="33"><path data-name="Forma 1" d="M35.22 16.763l-.9-4.545a6.275 6.275 0 0 0-1.293-2.977 4.16 4.16 0 0 0-3.266-1.434L24 8V2c0-.862-.168-2-1.031-2H1.562A1.562 1.562 0 0 0 0 1.56v22.081a6.251 6.251 0 0 0 6.127 6.236 4.689 4.689 0 0 0 8.839 0h9.678a4.688 4.688 0 0 0 8.837 0h4.957A1.561 1.561 0 0 0 40 28.32V22.7a6.1 6.1 0 0 0-4.78-5.937zM24 11l5.766-.074c.477 0 1.13 0 1.49 1.883a.064.064 0 0 0 0 .007L32 17h-8v-6zM10.547 29.88a1.56 1.56 0 1 1 1.562-1.56 1.563 1.563 0 0 1-1.562 1.56zm18.516 0a1.56 1.56 0 1 1 1.562-1.56 1.563 1.563 0 0 1-1.562 1.56zM37 27h-4c-.645-1.816-1.9-3.359-3.937-3.359A5.817 5.817 0 0 0 24 27h-9a4.962 4.962 0 0 0-4.453-3.359 4.7 4.7 0 0 0-4.418 3.116 3.125 3.125 0 0 1-3-3.116V3.12L21 3v14H8a1.508 1.508 0 0 0-1.75 1.259A1.9 1.9 0 0 0 8 20h26a1.112 1.112 0 0 0 .246-.24 2.971 2.971 0 0 1 2.629 2.944z" fill="#fec009" fill-rule="evenodd"/></svg>