<svg xmlns="http://www.w3.org/2000/svg" width="40" height="40"><path data-name="Forma 1" d="M31.641 20.079a4.687 4.687 0 1 0 0 9.374H38.437A1.562 1.562 0 0 0 40 27.891V15.625a6.244 6.244 0 0 0-2.59-5.061l-5.316-8.72a1.561 1.561 0 0 0-2.158-.514l-3.92 2.43L24.249.768a1.563 1.563 0 0 0-2.157-.539L7.04 9.376H4.687a1.524 1.524 0 1 1 0-3.047h2.891a1.563 1.563 0 1 0 0-3.125H4.687a4.7 4.7 0 0 0-4.56 3.6A1.577 1.577 0 0 0 0 7.422V33.75A6.257 6.257 0 0 0 6.25 40h27.5a6.242 6.242 0 0 0 5.93-4.27 1.563 1.563 0 1 0-2.965-.988A2.942 2.942 0 0 1 34 37H6a3.035 3.035 0 0 1-2.875-3.25L3 13a7.736 7.736 0 0 0 2 0h29c1.723 0 2.875.9 2.875 2.625v4.454h-5.234zm5.234 6.249h-5.234a1.563 1.563 0 1 1 0-3.125h5.234v3.125zM13 10l9.363-6.28 1.664 2.816a1.585 1.585 0 0 0 .114.225 1.462 1.462 0 0 0 .111.156L26 10H13zm16 0l-1.393-3.549 2.638-1.636L33 10h-4z" fill="#fec009" fill-rule="evenodd"/></svg>