<svg xmlns="http://www.w3.org/2000/svg" width="85" height="85"><path fill="#f7bb0a" d="M39.18 43.994V3.32a3.32 3.32 0 1 1 6.64 0v40.674a3.32 3.32 0 1 1-6.64 0zm-21.955-1.321a3.32 3.32 0 0 1 4.73-4.662L39.992 56.31a3.298 3.298 0 0 0 2.341.965 3.3 3.3 0 0 0 2.348-.972L63.067 37.99a3.32 3.32 0 0 1 4.686 4.704l-18.38 18.309a9.92 9.92 0 0 1-7.037 2.909 9.93 9.93 0 0 1-7.046-2.914l-.016-.017zM85 71.718C85 79.042 79.042 85 71.719 85H13.28C5.958 85 0 79.042 0 71.718a3.32 3.32 0 1 1 6.64 0 6.649 6.649 0 0 0 6.641 6.641H71.72a6.648 6.648 0 0 0 6.64-6.64 3.32 3.32 0 0 1 6.641 0z"/></svg>