<svg xmlns="http://www.w3.org/2000/svg" width="85" height="85"><path fill="#f7bb0a" d="M85 41.172V75.04c0 5.492-4.468 9.96-9.961 9.96h-4.98c-5.493 0-9.961-4.468-9.961-9.96V41.171c0-1.985.583-3.837 1.588-5.391L45.024 9.835 43.35 7.487a3.295 3.295 0 0 0-2.215-.846 3.324 3.324 0 0 0-3.194 4.234c.478.97.992 1.995 1.535 3.074 3.578 7.124 5.035 10.224 5.035 12.22l-.002.127c-.222 5.804-5.819 9.397-10.878 9.397H11.787a2.826 2.826 0 0 0-2.822 2.823c0 .92.46 1.788 1.228 2.321 1.592 1.105 1.926 2.417 1.926 3.323 0 1.83-1.341 3.4-3.338 3.903A2.86 2.86 0 0 0 6.64 50.8c0 1.445 1.07 2.722 2.337 2.79 3.135.17 3.971 2.336 3.971 3.589 0 1.454-.744 2.592-2.211 3.385l-.156.086c-.888.511-1.44 1.445-1.44 2.435 0 1.556 1.297 2.822 2.892 2.822h.75c2.327 0 4.15 1.654 4.15 3.766 0 .788-.278 2.265-2.141 3.292-.355.196-1.512.94-1.512 2.31 0 .927.279 3.083 2.858 3.083h32.504a3.32 3.32 0 1 1 0 6.641H16.139c-5.504 0-9.498-4.09-9.498-9.724 0-1.347.31-2.66.882-3.856-2.987-1.6-5.022-4.736-5.022-8.334 0-1.659.446-3.264 1.251-4.668A9.608 9.608 0 0 1 0 50.801c0-2.993 1.4-5.716 3.65-7.468a9.433 9.433 0 0 1-1.326-4.817c0-5.218 4.245-9.463 9.463-9.463H33.63c1.658 0 3.984-1.06 4.224-2.8-.369-1.47-2.825-6.36-4.313-9.324a424.732 424.732 0 0 1-1.67-3.346l-.092-.188-.068-.198a9.944 9.944 0 0 1-.538-3.236C31.173 4.468 35.64 0 41.133 0a9.887 9.887 0 0 1 7.114 2.988l.181.186 2.14 3.005L66.96 31.704a9.926 9.926 0 0 1 3.099-.493h4.98c5.493 0 9.961 4.469 9.961 9.961zm-6.64 0c0-1.83-1.49-3.32-3.321-3.32h-4.98a3.324 3.324 0 0 0-3.32 3.32V75.04a3.323 3.323 0 0 0 3.32 3.32h4.98c1.83 0 3.32-1.489 3.32-3.32z"/></svg>