<svg xmlns="http://www.w3.org/2000/svg" width="21" height="28"><path d="M3.5 28A3.5 3.5 0 0 1 0 24.5V3.51A3.5 3.5 0 0 1 3.5.01h8.17a1.165 1.165 0 1 1 0 2.33H3.5a1.166 1.166 0 0 0-1.167 1.17V24.5A1.173 1.173 0 0 0 3.5 25.67a1.165 1.165 0 1 1 0 2.33zm14.006 0H8.169a1.165 1.165 0 1 1 0-2.33h9.337a1.173 1.173 0 0 0 1.167-1.17V9.34a1.169 1.169 0 1 1 2.338 0V24.5a3.507 3.507 0 0 1-3.506 3.5zm2.334-17.5H14a3.5 3.5 0 0 1-3.5-3.49V1.17A1.157 1.157 0 0 1 11.22.1a1.173 1.173 0 0 1 1.272.25l8.17 8.16a1.166 1.166 0 0 1-.823 1.99zm-7-6.51v3.02a1.165 1.165 0 0 0 1.168 1.16h3.018zM14 19.83A1.167 1.167 0 0 1 12.832 21h-7a1.167 1.167 0 0 1-1.168-1.17 1.164 1.164 0 0 1 1.168-1.16h7A1.164 1.164 0 0 1 14 19.83zm2.334-4.66a1.173 1.173 0 0 1-1.167 1.17H5.83a1.173 1.173 0 0 1-1.168-1.17A1.173 1.173 0 0 1 5.83 14h9.337a1.173 1.173 0 0 1 1.167 1.17z" fill="#f8c01c" fill-rule="evenodd"/></svg>