<svg xmlns="http://www.w3.org/2000/svg" width="28" height="28"><path d="M16.342 22.56h-4.666a1.19 1.19 0 0 1 0-2.38h4.666a8.915 8.915 0 1 0 0-17.81h-4.666a9.136 9.136 0 0 0-9.334 8.91 8.555 8.555 0 0 0 1.4 4.68 1.2 1.2 0 0 1-.328 1.65 1.162 1.162 0 0 1-1.618-.33 11.006 11.006 0 0 1-1.784-6A11.493 11.493 0 0 1 11.679-.01h4.666a11.291 11.291 0 1 1-.003 22.57zM4.678 28.01a2.341 2.341 0 0 1-.895-.18 2.372 2.372 0 0 1-1.441-2.2 1.216 1.216 0 0 1 .044-.32l1.166-4.26a1.161 1.161 0 0 1 1.437-.82 1.185 1.185 0 0 1 .81 1.46l-1.063 3.88a.056.056 0 0 0 .03-.02l6.175-5.1a1.165 1.165 0 0 1 .735-.27h1.166a1.19 1.19 0 0 1 0 2.38h-.753l-5.814 4.8a2.324 2.324 0 0 1-1.597.65zm10.5-16.14a1.167 1.167 0 1 1-1.167-1.19 1.177 1.177 0 0 1 1.165 1.19zm5.833 0a1.167 1.167 0 1 1-1.167-1.19 1.177 1.177 0 0 1 1.165 1.19zm-11.667 0a1.167 1.167 0 1 1-1.166-1.19 1.176 1.176 0 0 1 1.164 1.19z" fill="#f8c01c" fill-rule="evenodd"/></svg>