<svg xmlns="http://www.w3.org/2000/svg" width="30" height="29"><path d="M20 21.75a1.259 1.259 0 0 1-.978-.45l-5-6.04a1.2 1.2 0 0 1-.274-.76V6.04a1.252 1.252 0 0 1 2.5 0v8.04l4.727 5.71a1.184 1.184 0 0 1-.2 1.7 1.255 1.255 0 0 1-.775.26zm-5.019 7.26a15.137 15.137 0 0 1-10.59-4.25 14.148 14.148 0 0 1-4.185-12.7A14.768 14.768 0 0 1 13.021.12a15.269 15.269 0 0 1 13.53 5.14 1.181 1.181 0 0 1-.16 1.7 1.293 1.293 0 0 1-1.763-.16 12.694 12.694 0 0 0-11.29-4.28 12.283 12.283 0 0 0-10.665 9.93 11.809 11.809 0 0 0 3.486 10.6 12.762 12.762 0 0 0 10.966 3.37 12.368 12.368 0 0 0 10.3-10.53 11.988 11.988 0 0 0-.13-3.59 10.667 10.667 0 0 0-.34-1.35 1.206 1.206 0 0 1 .83-1.51 1.258 1.258 0 0 1 1.56.8 12.955 12.955 0 0 1 .41 1.63 13.953 13.953 0 0 1 .15 4.28A14.655 14.655 0 0 1 17.534 28.8a15.755 15.755 0 0 1-2.554.21z" fill="#f8c01c" fill-rule="evenodd"/></svg>