<svg xmlns="http://www.w3.org/2000/svg" width="30" height="30"><path d="M26.48 4.39h-1.17V4.1a4.1 4.1 0 0 0-4.1-4.1H4.1A4.106 4.106 0 0 0 0 4.1v2.93a4.106 4.106 0 0 0 4.1 4.1h11.25a1.17 1.17 0 1 0 0-2.34H4.1a1.761 1.761 0 0 1-1.758-1.76V4.1A1.761 1.761 0 0 1 4.1 2.34h17.109a1.762 1.762 0 0 1 1.758 1.76v2.93a1.762 1.762 0 0 1-1.758 1.76 1.17 1.17 0 1 0 0 2.34 4.1 4.1 0 0 0 4.1-4.1v-.29h1.17a1.174 1.174 0 0 1 1.18 1.17v4.39a1.182 1.182 0 0 1-1.18 1.18h-9.722a4.69 4.69 0 0 0-4.688 4.68v.6H10.9a1.176 1.176 0 0 0-1.17 1.18v6.54a3.516 3.516 0 1 0 7.031 0v-6.55a1.168 1.168 0 0 0-1.172-1.17h-1.172v-.6a2.345 2.345 0 0 1 2.344-2.34h9.722a3.525 3.525 0 0 0 3.52-3.52V7.91a3.525 3.525 0 0 0-3.523-3.52zM14.414 26.48a1.172 1.172 0 1 1-2.344 0v-5.37l2.344-.01v5.38z" fill="#f8c01c" fill-rule="evenodd"/></svg>