<svg xmlns="http://www.w3.org/2000/svg" width="30" height="29"><path d="M29.63 13.34L17.43.95c-.015-.02-.031-.03-.048-.05a3.493 3.493 0 0 0-4.681-.01c-.017.02-.033.03-.049.05L.343 13.34a1.189 1.189 0 0 0 0 1.67 1.166 1.166 0 0 0 1.656 0l.929-.94v10.2A4.711 4.711 0 0 0 7.611 29h4.214a1.176 1.176 0 0 0 1.171-1.18v-9.63h4.1v9.63A1.176 1.176 0 0 0 18.267 29h4.1a4.709 4.709 0 0 0 4.681-4.73 1.17 1.17 0 1 0-2.34 0 2.356 2.356 0 0 1-2.341 2.37h-2.926v-9.63a1.177 1.177 0 0 0-1.171-1.18h-6.439a1.176 1.176 0 0 0-1.17 1.18v9.63H7.617a2.357 2.357 0 0 1-2.342-2.37V11.72l9.011-9.08a1.166 1.166 0 0 1 1.519 0l8.9 9.05v6.68a1.17 1.17 0 1 0 2.34 0v-4.31l.93.95a1.165 1.165 0 0 0 .83.34 1.142 1.142 0 0 0 .82-.34 1.192 1.192 0 0 0 .005-1.67z" fill="#f8c01c" fill-rule="evenodd"/></svg>