<svg width="42" height="42" viewBox="0 0 42 42" fill="none" xmlns="http://www.w3.org/2000/svg">
<mask id="mask0" mask-type="alpha" maskUnits="userSpaceOnUse" x="0" y="0" width="42" height="42">
<path fill-rule="evenodd" clip-rule="evenodd" d="M42 21C42 32.598 32.598 42 21 42C9.40202 42 0 32.598 0 21C0 9.40202 9.40202 0 21 0C32.598 0 42 9.40202 42 21ZM22.5322 21.822H26.2794L26.7754 17.002H22.5326V14.1626C22.5326 13.0976 23.2364 12.8475 23.7369 12.8475H26.7882V8.16444L22.5828 8.14685C17.9155 8.14685 16.8549 11.6429 16.8549 13.8755V16.9975H14.1548V21.822H16.8549V35.55H22.5322V21.822Z" fill="#3CDBC0"/>
</mask>
<g mask="url(#mask0)">
<path fill-rule="evenodd" clip-rule="evenodd" d="M42 21C42 32.598 32.598 42 21 42C9.40202 42 0 32.598 0 21C0 9.40202 9.40202 0 21 0C32.598 0 42 9.40202 42 21ZM22.5322 21.822H26.2794L26.7754 17.002H22.5326V14.1626C22.5326 13.0976 23.2364 12.8475 23.7369 12.8475H26.7882V8.16444L22.5828 8.14685C17.9155 8.14685 16.8549 11.6429 16.8549 13.8755V16.9975H14.1548V21.822H16.8549V35.55H22.5322V21.822Z" fill="#3CDBC0"/>
<path opacity="0.2" d="M40.0464 14.3319C35.181 3.81248 38.9127 -9.07977 33.5961 -19.1398C28.0263 -29.681 17.8928 -20.2667 13.5704 -13.9191C6.05623 -2.8835 0.903881 9.76834 -5.34767 21.5058C-8.1382 9.97198 -9.22728 -2.01827 -10.0111 -13.8286C-10.6698 -23.7276 -10.0678 -34.3246 -13.368 -43.8435C-16.11 -51.7598 -23.0925 -58.7021 -32.2265 -55.8725C-41.0936 -53.124 -46.2266 -43.0326 -50.3795 -35.6601C-59.6817 -19.1341 -67.4952 1.52622 -85.9144 10.3249C-91.8977 13.1821 -99.491 14.2211 -106.365 13.0597C-104.523 23.8661 -100.57 34.1068 -94.8657 43.2693C-71.9528 40.1758 -55.7558 26.3527 -45.9061 6.26517C-41.2605 -3.20381 -38.5204 -14.4463 -32.916 -23.3491C-31.2006 -26.0751 -28.2067 -28.6393 -25.3739 -25.7278C-22.9607 -23.2426 -23.7569 -16.9135 -23.6669 -13.888C-23.3071 -1.71383 -22.9361 10.4686 -22.7938 22.6449C-22.685 31.9752 -22.7244 45.1609 -12.7635 50.1639C-2.70008 55.2166 4.07667 42.2327 7.54215 35.1111C10.205 29.6354 12.3314 23.9354 14.4598 18.2421C15.5447 15.3348 17.2703 7.83442 21.1744 7.19908C27.4874 6.16426 27.6285 20.7504 28.896 24.6635C32.2001 34.8577 40.057 42.2351 49.6194 46.9223C52.8909 42.2171 55.6965 37.1465 57.972 31.765C50.1347 28.3546 43.5825 21.9722 40.0464 14.3319Z" fill="white"/>
<path opacity="0.2" d="M34.41 40.0691C29.5445 29.5497 33.2763 16.6575 27.9596 6.59749C22.3898 -3.94378 12.2563 5.47054 7.93391 11.8181C0.41975 22.8537 -4.73259 35.5056 -10.9841 47.243C-13.7747 35.7092 -14.8638 23.719 -15.6476 11.9086C-16.3063 2.00969 -15.7042 -8.58734 -19.0045 -18.1062C-21.7464 -26.0225 -28.7289 -32.9648 -37.863 -30.1353C-46.7301 -27.3868 -51.8631 -17.2954 -56.016 -9.92281C-65.3182 6.60311 -73.1317 27.2635 -91.5509 36.0621C-97.5342 38.9193 -105.128 39.9584 -112.002 38.797C-110.16 49.6033 -106.207 59.8441 -100.502 69.0066C-77.5892 65.9131 -61.3923 52.0899 -51.5426 32.0024C-46.897 22.5334 -44.1569 11.291 -38.5525 2.38815C-36.8371 -0.337835 -33.8431 -2.90202 -31.0103 0.00940498C-28.5972 2.49463 -29.3934 8.8237 -29.3034 11.8492C-28.9436 24.0234 -28.5726 36.2059 -28.4302 48.3822C-28.3215 57.7124 -28.3609 70.8982 -18.4 75.9012C-8.33655 80.9538 -1.5598 67.9699 1.90567 60.8483C4.56854 55.3726 6.69493 49.6727 8.8233 43.9794C9.90818 41.0721 11.6338 33.5717 15.5379 32.9363C21.8509 31.9015 21.992 46.4876 23.2596 50.4007C26.5636 60.595 34.4205 67.9723 43.9829 72.6596C47.2544 67.9544 50.06 62.8838 52.3355 57.5022C44.4982 54.0919 37.946 47.7094 34.41 40.0691Z" fill="url(#paint0_linear)"/>
</g>
<defs>
<linearGradient id="paint0_linear" x1="29.6954" y1="-9.37295" x2="-23.931" y2="93.6302" gradientUnits="userSpaceOnUse">
<stop stop-color="#3CDBC0"/>
<stop offset="0.380208" stop-color="#00A3E0"/>
<stop offset="0.854167" stop-color="#4D3B8F"/>
<stop offset="1" stop-color="#582C83"/>
</linearGradient>
</defs>
</svg>
