<svg>
	<symbol id="telegram" viewBox="0 0 24 24" xmlns="http://www.w3.org/2000/svg"><path d="M9.4 15.2L9 20.8c.6 0 .8-.3 1.1-.6l2.7-2.5 5.5 4c1 .6 1.7.3 2-1L24 3.9c.4-1.5-.5-2-1.5-1.7L1.1 10.3c-1.4.5-1.4 1.3-.2 1.7l5.4 1.7 12.7-8c.5-.3 1-.1.6.3z"/></symbol>
	<symbol id="viber" viewBox="0 0 24 24" xmlns="http://www.w3.org/2000/svg"><path d="M23.2 13.9c.7-6-.4-9.8-2.3-11.6-3-2.9-13.5-3.3-17.2.2C2 4.2 1.5 6.7 1.4 9.8c0 3.1-.1 9 5.3 10.6v2.4s0 1 .6 1.2c.7.2 1-.3 3.3-3 3.7.4 6.5-.3 6.9-.5.7-.2 5-.8 5.7-6.6zm-12.3 5.5L8 23c-.3.2-.6.2-.6-.3v-4c-4.6-1.3-4.3-6.3-4.2-9 0-2.5.5-4.6 1.9-6C8.2.6 17.4 1.3 19.7 3.5c2.8 2.5 1.8 9.6 1.8 9.9-.6 4.8-4 5.1-4.6 5.3-.3.1-2.8.8-6 .6z"/><path d="M12.2 4.3c-.4 0-.4.6 0 .6 3 0 5.5 2.1 5.5 6 0 .3.6.3.6 0 0-4.2-2.7-6.6-6-6.6z"/><path d="M16.2 10.2c0 .4.5.4.5 0a4 4 0 00-4-4.3c-.3 0-.4.5 0 .6 2.3.1 3.5 1.7 3.5 3.7zM15.5 12.8c-.5-.3-1-.1-1.2.1l-.4.6c-.2.3-.7.3-.7.3-3-.8-3.8-4-3.8-4s0-.4.3-.6l.5-.5c.3-.2.5-.7.2-1.2C9.6 6 9 5.7 8.9 5.3c-.3-.3-.7-.4-1-.2h-.1c-.9.5-1.8 1.5-1.5 2.4.5 1 1.5 4.4 4.5 6.8 1.4 1.2 3.7 2.4 4.6 2.7 1 .3 1.9-.7 2.4-1.6.2-.4.1-.8-.2-1l-2-1.6z"/><path d="M13.2 8.1c1 0 1.4.6 1.4 1.6 0 .4.6.4.6 0 0-1.4-.7-2.1-2-2.2-.4 0-.4.6 0 .6z"/></symbol>
	<symbol id="whatsup" viewBox="0 0 512 512" xmlns="http://www.w3.org/2000/svg"><path fill-rule="evenodd" d="M437.4 74.4A253.9 253.9 0 00257.1 0 254.7 254.7 0 002 253.7c0 44.7 11.8 88.4 34 126.8L0 512l135.1-35.3A254.7 254.7 0 00512 254c0-67.8-26.5-131.5-74.6-179.5zM257.1 464.8h-.1c-38 0-75.3-10.2-107.9-29.4l-7.7-4.6-80.2 21 21.4-77.9-5-8a209.6 209.6 0 01-32.4-112.2A211.7 211.7 0 01257.2 43 211 211 0 01407 104.6c40 39.9 62 92.8 62 149.2a211.7 211.7 0 01-212 210.9zm116.2-158c-6.4-3.2-37.7-18.5-43.5-20.6-5.9-2.1-10.1-3.2-14.4 3.2a370.1 370.1 0 01-20.1 24.8c-3.7 4.3-7.5 4.8-13.8 1.6-6.4-3.2-27-9.9-51.3-31.5a191.4 191.4 0 01-35.4-43.9c-3.7-6.3 0-9.4 2.8-13 6.9-8.4 13.8-17.4 16-21.6 2-4.2 1-8-.6-11.1-1.6-3.2-14.3-34.4-19.6-47-5.2-12.4-10.5-10.8-14.4-11l-12.2-.2c-4.2 0-11.1 1.6-17 8-5.8 6.3-22.3 21.6-22.3 52.8s22.9 61.4 26 65.6c3.2 4.3 45 68.3 108.9 95.7 15.2 6.6 27 10.5 36.3 13.4a87.7 87.7 0 0040 2.5c12.3-1.8 37.8-15.3 43-30.1 5.4-14.8 5.4-27.5 3.8-30.2-1.6-2.6-5.8-4.2-12.2-7.4z" clip-rule="evenodd"/></symbol>
	<symbol id="vk" viewBox="0 0 24 24" xmlns="http://www.w3.org/2000/svg"><path d="M20 13c-.5-.5-.4-.7 0-1.1 0 0 3.1-4.4 3.5-6 .1-.5 0-.9-.8-.9H20c-.6 0-1 .3-1.1.7 0 0-1.3 3.2-3.2 5.3-.6.6-1 .8-1.3.8-.1 0-.4-.2-.4-.7V5.9c0-.6-.2-.9-.7-.9H9.2c-.5 0-.7.3-.7.6 0 .6 1 .8 1 2.5V12c0 .8-.1 1-.5 1-.8 0-3-3.2-4.3-6.9-.2-.7-.5-1-1.2-1H1c-.7 0-.9.3-.9.7 0 .7.9 4.1 4.1 8.6 2.2 3 5.3 4.7 8 4.7 1.7 0 2-.4 2-1 0-3-.2-3.2.6-3.2.4 0 1 .2 2.6 1.7 1.8 1.7 2.1 2.5 3.1 2.5H23c.8 0 1.2-.4 1-1-.6-1.6-4-4.8-4-5z"/></symbol>
	<symbol id="instagram" viewBox="0 0 512 512" xmlns="http://www.w3.org/2000/svg"><path d="M511 150.5a187 187 0 00-12-62.1A125 125 0 00469.5 43a126 126 0 00-45.3-29.5 187.5 187.5 0 00-62-11.9C334.6.3 325.9 0 256.4 0S178.3.3 151 1.5a187.1 187.1 0 00-62 11.9A124.9 124.9 0 0043.4 43 126 126 0 0014 88.3a187.6 187.6 0 00-11.8 62.1C.8 177.8.4 186.5.4 256S.8 334.2 2 361.5a187 187 0 0012 62.1A126.2 126.2 0 0043.4 469a126 126 0 0045.4 29.5 187.6 187.6 0 0062 11.9c27.3 1.2 36 1.5 105.6 1.5s78.2-.3 105.5-1.5a187 187 0 0062-11.9 131 131 0 0075-74.9 187.7 187.7 0 0011.9-62.1c1.1-27.3 1.5-36 1.5-105.5s-.2-78.2-1.4-105.5zm-46.1 209c-1.1 25-5.3 38.5-8.8 47.5a85 85 0 01-48.7 48.6c-9 3.5-22.5 7.7-47.5 8.8-27 1.2-35 1.5-103.3 1.5s-76.5-.3-103.5-1.5c-25-1.1-38.5-5.3-47.5-8.8a78.8 78.8 0 01-29.3-19.1A79.6 79.6 0 0157 407.1c-3.5-9-7.7-22.6-8.7-47.5-1.3-27-1.5-35.1-1.5-103.4s.2-76.5 1.5-103.4c1-25 5.2-38.5 8.7-47.5a77.8 77.8 0 0119.3-29.4c8.2-8.5 18.2-15 29.4-19.1 9-3.5 22.6-7.7 47.5-8.8 27-1.2 35-1.5 103.3-1.5 68.5 0 76.5.3 103.5 1.5 25 1.1 38.5 5.3 47.5 8.8a78.7 78.7 0 0129.3 19.1c8.5 8.3 15 18.3 19.2 29.4 3.5 9 7.7 22.6 8.8 47.5 1.2 27 1.5 35.1 1.5 103.4s-.3 76.3-1.5 103.3zm0 0"/><path d="M256.4 124.5a131.5 131.5 0 10.1 263 131.5 131.5 0 000-263zm0 216.8a85.3 85.3 0 110-170.6 85.3 85.3 0 010 170.6zm0 0M423.9 119.3a30.7 30.7 0 11-61.5 0 30.7 30.7 0 0161.5 0zm0 0"/></symbol>
</svg>
