<svg width="42" height="42" viewBox="0 0 42 42" fill="none" xmlns="http://www.w3.org/2000/svg">
<mask id="mask0" mask-type="alpha" maskUnits="userSpaceOnUse" x="0" y="0" width="42" height="42">
<path fill-rule="evenodd" clip-rule="evenodd" d="M0 21C0 9.40247 9.40248 0 21 0C32.5975 0 42 9.40247 42 21C42 32.5975 32.5975 42 21 42C9.40248 42 0 32.5975 0 21ZM27.259 33.6887C30.7735 33.6887 33.6321 30.8301 33.6321 27.3156V14.7977C33.6321 11.2836 30.7735 8.4245 27.259 8.4245H14.741C11.2269 8.4245 8.3679 11.2836 8.3679 14.7977V27.3156C8.3679 30.8301 11.2269 33.6887 14.741 33.6887H27.259ZM30.883 14.7977C30.883 12.7996 29.2575 11.1741 27.259 11.1741H14.741C12.743 11.1741 11.1174 12.7996 11.1174 14.7977V27.3156C11.1174 29.3137 12.743 30.9397 14.741 30.9397H27.259C29.257 30.9397 30.883 29.3141 30.883 27.3156V14.7977ZM21 27.5636C17.4124 27.5636 14.4935 24.6447 14.4935 21.0566C14.4935 17.4691 17.4124 14.5502 21 14.5502C24.5881 14.5502 27.507 17.4691 27.507 21.0566C27.507 24.6442 24.5876 27.5636 21 27.5636ZM27.7161 15.8954C26.8669 15.8954 26.1762 15.2048 26.1762 14.356C26.1762 13.5071 26.8669 12.8165 27.7161 12.8165C28.5649 12.8165 29.2556 13.5071 29.2556 14.356C29.2556 15.2048 28.5649 15.8954 27.7161 15.8954ZM21 17.2997C18.929 17.2997 17.2426 18.9852 17.2426 21.0562C17.2426 23.1282 18.929 24.8141 21 24.8141C23.072 24.8141 24.757 23.1282 24.757 21.0562C24.757 18.9856 23.0715 17.2997 21 17.2997Z" fill="#582C83"/>
</mask>
<g mask="url(#mask0)">
<path fill-rule="evenodd" clip-rule="evenodd" d="M0 21C0 9.40248 9.40248 0 21 0C32.5975 0 42 9.40248 42 21C42 32.5975 32.5975 42 21 42C9.40248 42 0 32.5975 0 21ZM27.259 33.6887C30.7735 33.6887 33.6321 30.8302 33.6321 27.3156V14.7977C33.6321 11.2835 30.7735 8.42452 27.259 8.42452H14.741C11.2269 8.42452 8.3679 11.2835 8.3679 14.7977V27.3156C8.3679 30.8302 11.2269 33.6887 14.741 33.6887H27.259ZM30.883 14.7977C30.883 12.7996 29.2575 11.1741 27.259 11.1741H14.741C12.743 11.1741 11.1174 12.7996 11.1174 14.7977V27.3156C11.1174 29.3136 12.743 30.9397 14.741 30.9397H27.259C29.257 30.9397 30.883 29.3141 30.883 27.3156V14.7977ZM21 27.5636C17.4124 27.5636 14.4935 24.6447 14.4935 21.0566C14.4935 17.4691 17.4124 14.5501 21 14.5501C24.5881 14.5501 27.507 17.4691 27.507 21.0566C27.507 24.6442 24.5876 27.5636 21 27.5636ZM27.7161 15.8954C26.8668 15.8954 26.1762 15.2048 26.1762 14.356C26.1762 13.5071 26.8668 12.8165 27.7161 12.8165C28.5649 12.8165 29.2556 13.5071 29.2556 14.356C29.2556 15.2048 28.5649 15.8954 27.7161 15.8954ZM21 17.2997C18.929 17.2997 17.2426 18.9851 17.2426 21.0562C17.2426 23.1282 18.929 24.8141 21 24.8141C23.072 24.8141 24.757 23.1282 24.757 21.0562C24.757 18.9856 23.0715 17.2997 21 17.2997Z" fill="#582C83"/>
<path opacity="0.2" d="M92.0464 14.3319C87.181 3.81248 90.9127 -9.07977 85.5961 -19.1398C80.0263 -29.681 69.8928 -20.2667 65.5704 -13.9191C58.0562 -2.8835 52.9039 9.76834 46.6523 21.5058C43.8618 9.97198 42.7727 -2.01827 41.9889 -13.8286C41.3302 -23.7276 41.9322 -34.3246 38.632 -43.8435C35.89 -51.7598 28.9075 -58.7021 19.7735 -55.8725C10.9064 -53.124 5.77336 -43.0326 1.6205 -35.6601C-7.68169 -19.1341 -15.4952 1.52622 -33.9144 10.3249C-39.8977 13.1821 -47.491 14.2211 -54.3652 13.0597C-52.5231 23.8661 -48.5702 34.1068 -42.8657 43.2693C-19.9528 40.1758 -3.75578 26.3527 6.09387 6.26517C10.7395 -3.20381 13.4796 -14.4463 19.084 -23.3491C20.7994 -26.0751 23.7933 -28.6393 26.6261 -25.7278C29.0393 -23.2426 28.2431 -16.9135 28.3331 -13.888C28.6929 -1.71383 29.0639 10.4686 29.2062 22.6449C29.315 31.9752 29.2756 45.1609 39.2365 50.1639C49.2999 55.2166 56.0767 42.2327 59.5421 35.1111C62.205 29.6354 64.3314 23.9354 66.4598 18.2421C67.5447 15.3348 69.2703 7.83442 73.1744 7.19908C79.4874 6.16426 79.6285 20.7504 80.896 24.6635C84.2001 34.8577 92.057 42.2351 101.619 46.9223C104.891 42.2171 107.697 37.1465 109.972 31.765C102.135 28.3546 95.5825 21.9722 92.0464 14.3319Z" fill="white"/>
<path opacity="0.2" d="M86.41 40.0691C81.5445 29.5497 85.2763 16.6575 79.9596 6.59749C74.3898 -3.94378 64.2563 5.47054 59.9339 11.8181C52.4198 22.8537 47.2674 35.5056 41.0159 47.243C38.2253 35.7092 37.1362 23.719 36.3524 11.9086C35.6937 2.00969 36.2958 -8.58734 32.9955 -18.1062C30.2536 -26.0225 23.2711 -32.9648 14.137 -30.1353C5.26988 -27.3868 0.136885 -17.2954 -4.01598 -9.92281C-13.3182 6.60311 -21.1317 27.2635 -39.5509 36.0621C-45.5342 38.9193 -53.1275 39.9584 -60.0017 38.797C-58.1595 49.6033 -54.2067 59.8441 -48.5022 69.0066C-25.5892 65.9131 -9.39226 52.0899 0.457394 32.0024C5.10298 22.5334 7.84314 11.291 13.4475 2.38815C15.1629 -0.337835 18.1569 -2.90202 20.9897 0.00940498C23.4028 2.49463 22.6066 8.8237 22.6966 11.8492C23.0564 24.0234 23.4274 36.2059 23.5698 48.3822C23.6785 57.7124 23.6391 70.8982 33.6 75.9012C43.6634 80.9538 50.4402 67.9699 53.9057 60.8483C56.5685 55.3726 58.6949 49.6727 60.8233 43.9794C61.9082 41.0721 63.6338 33.5717 67.5379 32.9363C73.8509 31.9015 73.992 46.4876 75.2596 50.4007C78.5636 60.595 86.4205 67.9723 95.9829 72.6596C99.2544 67.9544 102.06 62.8838 104.335 57.5022C96.4982 54.0919 89.946 47.7094 86.41 40.0691Z" fill="url(#paint0_linear)"/>
</g>
<defs>
<linearGradient id="paint0_linear" x1="81.6954" y1="-9.37295" x2="28.069" y2="93.6302" gradientUnits="userSpaceOnUse">
<stop stop-color="#3CDBC0"/>
<stop offset="0.380208" stop-color="#00A3E0"/>
<stop offset="0.854167" stop-color="#4D3B8F"/>
<stop offset="1" stop-color="#582C83"/>
</linearGradient>
</defs>
</svg>
