<svg width="42" height="42" viewBox="0 0 42 42" fill="none" xmlns="http://www.w3.org/2000/svg">
<mask id="mask0" mask-type="alpha" maskUnits="userSpaceOnUse" x="0" y="0" width="42" height="42">
<path fill-rule="evenodd" clip-rule="evenodd" d="M42 21C42 32.598 32.598 42 21 42C9.40202 42 0 32.598 0 21C0 9.40202 9.40202 0 21 0C32.598 0 42 9.40202 42 21ZM21.855 30.2104H20.2068C20.2068 30.2104 16.57 30.4294 13.3675 27.0951C9.87485 23.4583 6.79025 16.2417 6.79025 16.2417C6.79025 16.2417 6.61243 15.7685 6.80559 15.5398C7.02271 15.2826 7.61418 15.2662 7.61418 15.2662L11.5542 15.2403C11.5542 15.2403 11.9255 15.3025 12.1913 15.4975C12.4103 15.6585 12.5331 15.9594 12.5331 15.9594C12.5331 15.9594 13.1698 17.5699 14.0132 19.0268C15.6592 21.8711 16.4259 22.4933 16.9848 22.1885C17.799 21.7442 17.5549 18.1677 17.5549 18.1677C17.5549 18.1677 17.5699 16.8695 17.145 16.2915C16.816 15.8434 16.1953 15.7127 15.9213 15.6761C15.6997 15.6465 16.0635 15.1318 16.5352 14.9008C17.2442 14.5534 18.4964 14.5336 19.9758 14.5489C21.1284 14.5605 21.4601 14.6324 21.9108 14.7413C22.9565 14.9938 22.9238 15.8028 22.8535 17.5484C22.8325 18.07 22.8081 18.6752 22.8081 19.3742C22.8081 19.5315 22.8035 19.6991 22.7988 19.8716C22.7744 20.7656 22.7464 21.7891 23.3348 22.1694C23.6365 22.3641 24.3747 22.1986 26.221 19.0635C27.0962 17.5777 27.7524 15.8307 27.7524 15.8307C27.7524 15.8307 27.8958 15.5192 28.1185 15.3856C28.3465 15.2493 28.6539 15.2912 28.6539 15.2912L32.8001 15.2654C32.8001 15.2654 34.0459 15.1168 34.2477 15.6791C34.4592 16.2694 33.782 17.6477 32.0881 19.9054C30.4794 22.0495 29.6978 22.8376 29.7713 23.5356C29.8248 24.0444 30.3329 24.5054 31.3065 25.409C33.3474 27.3035 33.8913 28.2982 34.0206 28.5346C34.0311 28.5537 34.0388 28.5678 34.0444 28.5771C34.9578 30.0917 33.0314 30.2104 33.0314 30.2104L29.349 30.2617C29.349 30.2617 28.5577 30.4185 27.5162 29.7031C26.9716 29.3293 26.4391 28.7189 25.9318 28.1373C25.1563 27.2482 24.4395 26.4265 23.8278 26.6204C22.8014 26.9461 22.8335 29.1577 22.8335 29.1577C22.8335 29.1577 22.841 29.6301 22.6071 29.8817C22.3529 30.1557 21.855 30.2104 21.855 30.2104Z" fill="#00A3E0"/>
</mask>
<g mask="url(#mask0)">
<path fill-rule="evenodd" clip-rule="evenodd" d="M42 21C42 32.598 32.598 42 21 42C9.40202 42 0 32.598 0 21C0 9.40202 9.40202 0 21 0C32.598 0 42 9.40202 42 21ZM21.855 30.2104H20.2068C20.2068 30.2104 16.57 30.4294 13.3675 27.0951C9.87485 23.4583 6.79025 16.2417 6.79025 16.2417C6.79025 16.2417 6.61243 15.7685 6.80559 15.5398C7.02271 15.2826 7.61418 15.2662 7.61418 15.2662L11.5542 15.2403C11.5542 15.2403 11.9255 15.3025 12.1913 15.4975C12.4103 15.6585 12.5331 15.9594 12.5331 15.9594C12.5331 15.9594 13.1698 17.5699 14.0132 19.0268C15.6592 21.8711 16.4259 22.4933 16.9848 22.1885C17.799 21.7442 17.5549 18.1677 17.5549 18.1677C17.5549 18.1677 17.5699 16.8695 17.145 16.2915C16.816 15.8434 16.1953 15.7127 15.9213 15.6761C15.6997 15.6465 16.0635 15.1318 16.5352 14.9008C17.2442 14.5534 18.4964 14.5336 19.9758 14.5489C21.1284 14.5605 21.4601 14.6324 21.9108 14.7413C22.9565 14.9938 22.9238 15.8028 22.8535 17.5484C22.8325 18.07 22.8081 18.6752 22.8081 19.3742C22.8081 19.5315 22.8035 19.6991 22.7988 19.8716C22.7744 20.7656 22.7464 21.7891 23.3348 22.1694C23.6365 22.3641 24.3747 22.1986 26.221 19.0635C27.0962 17.5777 27.7524 15.8307 27.7524 15.8307C27.7524 15.8307 27.8958 15.5192 28.1185 15.3856C28.3465 15.2493 28.6539 15.2912 28.6539 15.2912L32.8001 15.2654C32.8001 15.2654 34.0459 15.1168 34.2477 15.6791C34.4592 16.2694 33.782 17.6477 32.0881 19.9054C30.4794 22.0495 29.6978 22.8376 29.7713 23.5356C29.8248 24.0444 30.3329 24.5054 31.3065 25.409C33.3474 27.3035 33.8913 28.2982 34.0206 28.5346C34.0311 28.5537 34.0388 28.5678 34.0444 28.5771C34.9578 30.0917 33.0314 30.2104 33.0314 30.2104L29.349 30.2617C29.349 30.2617 28.5577 30.4185 27.5162 29.7031C26.9716 29.3293 26.4391 28.7189 25.9318 28.1373C25.1563 27.2482 24.4395 26.4265 23.8278 26.6204C22.8014 26.9461 22.8335 29.1577 22.8335 29.1577C22.8335 29.1577 22.841 29.6301 22.6071 29.8817C22.3529 30.1557 21.855 30.2104 21.855 30.2104Z" fill="#00A3E0"/>
<path opacity="0.2" d="M144.046 13.3319C139.181 2.81248 142.913 -10.0798 137.596 -20.1398C132.026 -30.681 121.893 -21.2667 117.57 -14.9191C110.056 -3.8835 104.904 8.76834 98.6523 20.5058C95.8618 8.97198 94.7727 -3.01827 93.9889 -14.8286C93.3302 -24.7276 93.9322 -35.3246 90.632 -44.8435C87.89 -52.7598 80.9075 -59.7021 71.7735 -56.8725C62.9064 -54.124 57.7734 -44.0326 53.6205 -36.6601C44.3183 -20.1341 36.5048 0.526218 18.0856 9.32488C12.1023 12.1821 4.50895 13.2211 -2.36521 12.0597C-0.523068 22.8661 3.42981 33.1068 9.13429 42.2693C32.0472 39.1758 48.2442 25.3527 58.0939 5.26517C62.7395 -4.20381 65.4796 -15.4463 71.084 -24.3491C72.7994 -27.0751 75.7933 -29.6393 78.6261 -26.7278C81.0393 -24.2426 80.2431 -17.9135 80.3331 -14.888C80.6929 -2.71383 81.0639 9.46863 81.2062 21.6449C81.315 30.9752 81.2756 44.1609 91.2365 49.1639C101.3 54.2166 108.077 41.2327 111.542 34.1111C114.205 28.6354 116.331 22.9354 118.46 17.2421C119.545 14.3348 121.27 6.83442 125.174 6.19908C131.487 5.16426 131.628 19.7504 132.896 23.6635C136.2 33.8577 144.057 41.2351 153.619 45.9223C156.891 41.2171 159.697 36.1465 161.972 30.765C154.135 27.3546 147.582 20.9722 144.046 13.3319Z" fill="white"/>
<path opacity="0.2" d="M138.41 39.0691C133.544 28.5497 137.276 15.6575 131.96 5.59749C126.39 -4.94378 116.256 4.47054 111.934 10.8181C104.42 21.8537 99.2674 34.5056 93.0159 46.243C90.2253 34.7092 89.1362 22.719 88.3524 10.9086C87.6937 1.00969 88.2958 -9.58734 84.9955 -19.1062C82.2536 -27.0225 75.2711 -33.9648 66.137 -31.1353C57.2699 -28.3868 52.1369 -18.2954 47.984 -10.9228C38.6818 5.60311 30.8683 26.2635 12.4491 35.0621C6.46583 37.9193 -1.12752 38.9584 -8.00168 37.797C-6.15954 48.6033 -2.20666 58.8441 3.49782 68.0066C26.4108 64.9131 42.6077 51.0899 52.4574 31.0024C57.103 21.5334 59.8431 10.291 65.4475 1.38815C67.1629 -1.33783 70.1569 -3.90202 72.9897 -0.990595C75.4028 1.49463 74.6066 7.8237 74.6966 10.8492C75.0564 23.0234 75.4274 35.2059 75.5698 47.3822C75.6785 56.7124 75.6391 69.8982 85.6 74.9012C95.6634 79.9538 102.44 66.9699 105.906 59.8483C108.569 54.3726 110.695 48.6727 112.823 42.9794C113.908 40.0721 115.634 32.5717 119.538 31.9363C125.851 30.9015 125.992 45.4876 127.26 49.4007C130.564 59.595 138.42 66.9723 147.983 71.6596C151.254 66.9544 154.06 61.8838 156.335 56.5022C148.498 53.0919 141.946 46.7094 138.41 39.0691Z" fill="url(#paint0_linear)"/>
</g>
<defs>
<linearGradient id="paint0_linear" x1="133.695" y1="-10.373" x2="80.069" y2="92.6302" gradientUnits="userSpaceOnUse">
<stop stop-color="#3CDBC0"/>
<stop offset="0.380208" stop-color="#00A3E0"/>
<stop offset="0.854167" stop-color="#4D3B8F"/>
<stop offset="1" stop-color="#582C83"/>
</linearGradient>
</defs>
</svg>
