<?xml version="1.0" standalone="no"?>
<!DOCTYPE svg PUBLIC "-//W3C//DTD SVG 20010904//EN"
 "http://www.w3.org/TR/2001/REC-SVG-20010904/DTD/svg10.dtd">
<svg version="1.0" xmlns="http://www.w3.org/2000/svg"
 width="96.000000pt" height="96.000000pt" viewBox="0 0 96.000000 96.000000"
 preserveAspectRatio="xMidYMid meet">
<metadata>
Created by potrace 1.11, written by Peter Selinger 2001-2013
</metadata>
<g transform="translate(0.000000,96.000000) scale(0.100000,-0.100000)"
fill="#000000" stroke="none">
<path d="M395 953 c-229 -51 -383 -227 -391 -446 -3 -82 9 -164 26 -181 13
-13 80 8 115 36 45 35 82 104 121 222 54 165 77 199 134 199 62 0 89 -47 135
-236 30 -125 51 -179 59 -157 3 8 12 42 22 75 38 138 84 206 129 189 19 -8 39
-52 56 -122 7 -28 26 -68 43 -88 28 -34 92 -71 103 -60 12 11 9 154 -3 208
-41 176 -196 324 -373 358 -54 10 -138 12 -176 3z"/>
<path d="M401 606 c-6 -8 -21 -58 -33 -112 -11 -55 -32 -123 -47 -153 -31 -66
-94 -130 -150 -155 -22 -11 -41 -23 -41 -27 0 -4 19 -24 43 -44 179 -155 451
-146 635 19 33 31 102 127 102 144 0 5 -14 15 -31 22 -45 19 -84 63 -113 125
-40 87 -60 71 -81 -65 -10 -61 -34 -121 -58 -142 -24 -22 -21 -22 -62 -3 -48
23 -49 29 -101 290 -22 112 -36 134 -63 101z"/>
</g>
</svg>
