<svg width="42" height="42" viewBox="0 0 42 42" fill="none" xmlns="http://www.w3.org/2000/svg">
<mask id="mask0" mask-type="alpha" maskUnits="userSpaceOnUse" x="0" y="0" width="42" height="42">
<path fill-rule="evenodd" clip-rule="evenodd" d="M42 21C42 32.598 32.598 42 21 42C9.40202 42 0 32.598 0 21C0 9.40202 9.40202 0 21 0C32.598 0 42 9.40202 42 21ZM9.74124 25.1522C8.22971 27.522 8.98561 30.7165 11.4263 32.2732C13.8669 33.8299 17.0823 33.1684 18.5938 30.7985L25.9648 19.2421C26.9725 17.6622 26.4685 15.5325 24.8414 14.4947C23.2143 13.4569 21.0708 13.8979 20.0631 15.4778L12.6921 27.0343L14.1675 27.9754L21.5385 16.4189C22.0423 15.629 23.1141 15.4084 23.9277 15.9273C24.7412 16.4462 24.9932 17.5111 24.4894 18.301L17.1184 29.8575C16.1107 31.4374 13.9671 31.8784 12.34 30.8406C10.7129 29.8028 10.209 27.6731 11.2167 26.0932L20.4151 11.6715C21.9267 9.3017 25.142 8.64016 27.5827 10.1969C30.0234 11.7536 30.7793 14.9481 29.2677 17.3179L20.0693 31.7396L21.5447 32.6807L30.7432 18.259C32.7585 15.0992 31.7507 10.8399 28.4965 8.76425C25.2422 6.68864 20.9551 7.57069 18.9397 10.7305L9.74124 25.1522Z" fill="#00A3E0"/>
</mask>
<g mask="url(#mask0)">
<path fill-rule="evenodd" clip-rule="evenodd" d="M42 21C42 32.598 32.598 42 21 42C9.40202 42 0 32.598 0 21C0 9.40202 9.40202 0 21 0C32.598 0 42 9.40202 42 21ZM9.74124 25.1522C8.22971 27.522 8.98561 30.7165 11.4263 32.2732C13.8669 33.8299 17.0823 33.1684 18.5938 30.7985L25.9648 19.2421C26.9725 17.6622 26.4685 15.5325 24.8414 14.4947C23.2143 13.4569 21.0708 13.8979 20.0631 15.4778L12.6921 27.0343L14.1675 27.9754L21.5385 16.4189C22.0423 15.629 23.1141 15.4084 23.9277 15.9273C24.7412 16.4462 24.9932 17.5111 24.4894 18.301L17.1184 29.8575C16.1107 31.4374 13.9671 31.8784 12.34 30.8406C10.7129 29.8028 10.209 27.6731 11.2167 26.0932L20.4151 11.6715C21.9267 9.3017 25.142 8.64016 27.5827 10.1969C30.0234 11.7536 30.7793 14.9481 29.2677 17.3179L20.0693 31.7396L21.5447 32.6807L30.7432 18.259C32.7585 15.0992 31.7507 10.8399 28.4965 8.76425C25.2422 6.68864 20.9551 7.57069 18.9397 10.7305L9.74124 25.1522Z" fill="#00A3E0"/>
<path opacity="0.2" d="M144.046 13.3319C139.181 2.81248 142.913 -10.0798 137.596 -20.1398C132.026 -30.681 121.893 -21.2667 117.57 -14.9191C110.056 -3.8835 104.904 8.76834 98.6523 20.5058C95.8618 8.97198 94.7727 -3.01827 93.9889 -14.8286C93.3302 -24.7276 93.9322 -35.3246 90.632 -44.8435C87.89 -52.7598 80.9075 -59.7021 71.7735 -56.8725C62.9064 -54.124 57.7734 -44.0326 53.6205 -36.6601C44.3183 -20.1341 36.5048 0.526217 18.0856 9.32488C12.1023 12.1821 4.50895 13.2211 -2.36521 12.0597C-0.523069 22.8661 3.42981 33.1068 9.13429 42.2693C32.0472 39.1758 48.2442 25.3527 58.0939 5.26517C62.7394 -4.20382 65.4796 -15.4463 71.084 -24.3491C72.7994 -27.0751 75.7933 -29.6393 78.6261 -26.7278C81.0393 -24.2426 80.2431 -17.9135 80.3331 -14.888C80.6929 -2.71383 81.0638 9.46864 81.2062 21.6449C81.315 30.9752 81.2756 44.1609 91.2365 49.1639C101.3 54.2166 108.077 41.2327 111.542 34.1111C114.205 28.6354 116.331 22.9354 118.46 17.2421C119.545 14.3348 121.27 6.83443 125.174 6.19908C131.487 5.16426 131.628 19.7504 132.896 23.6635C136.2 33.8577 144.057 41.2351 153.619 45.9223C156.891 41.2171 159.697 36.1465 161.972 30.765C154.135 27.3546 147.582 20.9722 144.046 13.3319Z" fill="white"/>
<path opacity="0.2" d="M138.41 39.0692C133.544 28.5498 137.276 15.6575 131.96 5.59755C126.39 -4.94372 116.256 4.4706 111.934 10.8182C104.42 21.8538 99.2674 34.5056 93.0159 46.2431C90.2253 34.7093 89.1362 22.719 88.3524 10.9087C87.6937 1.00975 88.2958 -9.58728 84.9955 -19.1062C82.2536 -27.0225 75.2711 -33.9648 66.137 -31.1352C57.2699 -28.3867 52.1369 -18.2953 47.984 -10.9227C38.6818 5.60317 30.8683 26.2635 12.4491 35.0622C6.46583 37.9194 -1.12752 38.9584 -8.00168 37.797C-6.15954 48.6034 -2.20666 58.8441 3.49782 68.0066C26.4108 64.9131 42.6077 51.09 52.4574 31.0025C57.103 21.5335 59.8431 10.291 65.4475 1.38821C67.1629 -1.33777 70.1569 -3.90196 72.9897 -0.990534C75.4028 1.49469 74.6066 7.82376 74.6966 10.8493C75.0564 23.0235 75.4274 35.2059 75.5698 47.3822C75.6785 56.7125 75.6391 69.8983 85.6 74.9012C95.6634 79.9539 102.44 66.97 105.906 59.8484C108.569 54.3727 110.695 48.6727 112.823 42.9794C113.908 40.0721 115.634 32.5717 119.538 31.9364C125.851 30.9016 125.992 45.4877 127.26 49.4008C130.564 59.595 138.42 66.9724 147.983 71.6596C151.254 66.9544 154.06 61.8838 156.335 56.5023C148.498 53.0919 141.946 46.7095 138.41 39.0692Z" fill="url(#paint0_linear)"/>
</g>
<defs>
<linearGradient id="paint0_linear" x1="133.695" y1="-10.3729" x2="80.069" y2="92.6302" gradientUnits="userSpaceOnUse">
<stop stop-color="#3CDBC0"/>
<stop offset="0.380208" stop-color="#00A3E0"/>
<stop offset="0.854167" stop-color="#4D3B8F"/>
<stop offset="1" stop-color="#582C83"/>
</linearGradient>
</defs>
</svg>
